<svg width="393" height="852" viewBox="0 0 393 852" fill="none" xmlns="http://www.w3.org/2000/svg">
<g clip-path="url(#clip0_4690_727)">
<rect width="393" height="852" rx="20" fill="white"/>
<path d="M71.4831 23.0627C72.125 23.0627 72.7337 23.1817 73.3092 23.4197C73.8847 23.6521 74.3939 24.0173 74.8366 24.5154C75.2848 25.0079 75.6362 25.6415 75.8908 26.4163C76.1453 27.1855 76.2726 28.1124 76.2726 29.197V29.2136C76.2726 30.5583 76.0789 31.7094 75.6915 32.6667C75.3042 33.6241 74.748 34.3601 74.0231 34.8748C73.3037 35.3839 72.4432 35.6384 71.4415 35.6384C70.7055 35.6384 70.0415 35.5056 69.4494 35.24C68.8628 34.9688 68.3758 34.5981 67.9884 34.1277C67.6066 33.6518 67.3493 33.1095 67.2164 32.5007L67.1998 32.4094H69.2999L69.3331 32.4924C69.4383 32.7691 69.5877 33.0126 69.7814 33.2229C69.9806 33.4332 70.2186 33.5964 70.4953 33.7126C70.7775 33.8233 71.0929 33.8787 71.4415 33.8787C72.0724 33.8787 72.5871 33.6933 72.9855 33.3225C73.3895 32.9462 73.6911 32.4454 73.8903 31.8201C74.095 31.1892 74.2112 30.4919 74.2389 29.7283C74.2444 29.6453 74.2472 29.565 74.2472 29.4875C74.2472 29.4045 74.2472 29.3243 74.2472 29.2468L73.8737 27.2463C73.8737 26.7926 73.7685 26.3803 73.5582 26.0095C73.348 25.6388 73.063 25.3455 72.7033 25.1296C72.3491 24.9138 71.9479 24.8059 71.4997 24.8059C71.068 24.8059 70.6723 24.9111 70.3126 25.1213C69.9529 25.3316 69.6652 25.6194 69.4494 25.9846C69.2335 26.3443 69.1256 26.7483 69.1256 27.1965V27.2131C69.1256 27.678 69.228 28.0903 69.4328 28.45C69.6375 28.8041 69.917 29.0836 70.2711 29.2883C70.6253 29.4931 71.0293 29.5955 71.4831 29.5955C71.9368 29.5955 72.3436 29.4958 72.7033 29.2966C73.063 29.0974 73.348 28.8207 73.5582 28.4666C73.7685 28.1124 73.8737 27.7112 73.8737 27.2629V27.2463H74.3717V29.4543H74.0812C73.9373 29.7698 73.7243 30.0631 73.442 30.3342C73.1598 30.6054 72.8112 30.824 72.3961 30.99C71.9866 31.156 71.5052 31.239 70.9518 31.239C70.1881 31.239 69.513 31.0675 68.9264 30.7244C68.3398 30.3813 67.8777 29.9109 67.5402 29.3132C67.2081 28.7156 67.0421 28.0404 67.0421 27.2878V27.2712C67.0421 26.4578 67.2303 25.7356 67.6066 25.1047C67.9884 24.4683 68.5141 23.9703 69.1837 23.6106C69.8589 23.2454 70.6253 23.0627 71.4831 23.0627ZM80.0412 33.7292C79.6649 33.7292 79.3494 33.6047 79.0949 33.3557C78.8458 33.1012 78.7213 32.7913 78.7213 32.426C78.7213 32.0553 78.8458 31.7454 79.0949 31.4963C79.3494 31.2418 79.6649 31.1145 80.0412 31.1145C80.423 31.1145 80.7384 31.2418 80.9874 31.4963C81.2365 31.7454 81.361 32.0553 81.361 32.426C81.361 32.7913 81.2365 33.1012 80.9874 33.3557C80.7384 33.6047 80.423 33.7292 80.0412 33.7292ZM80.0412 27.5701C79.6649 27.5701 79.3494 27.4456 79.0949 27.1965C78.8458 26.942 78.7213 26.6321 78.7213 26.2668C78.7213 25.8961 78.8458 25.5862 79.0949 25.3372C79.3494 25.0826 79.6649 24.9553 80.0412 24.9553C80.423 24.9553 80.7384 25.0826 80.9874 25.3372C81.2365 25.5862 81.361 25.8961 81.361 26.2668C81.361 26.6321 81.2365 26.942 80.9874 27.1965C80.7384 27.4456 80.423 27.5701 80.0412 27.5701ZM89.6203 35.3396V33.0403H83.7599V31.2888C84.0753 30.752 84.3908 30.2125 84.7062 29.6702C85.0272 29.1278 85.3509 28.5883 85.6774 28.0515C86.0094 27.5092 86.3387 26.9752 86.6652 26.4495C86.9972 25.9182 87.3265 25.3953 87.653 24.8806C87.985 24.3604 88.317 23.8541 88.6491 23.3616H91.6623V31.2722H93.2809V33.0403H91.6623V35.3396H89.6203ZM85.7521 31.322H89.6535V25.0715H89.5289C89.2855 25.4478 89.0337 25.8352 88.7736 26.2336C88.519 26.6321 88.2617 27.0388 88.0016 27.4539C87.7415 27.8689 87.4842 28.2867 87.2296 28.7073C86.9751 29.1223 86.7233 29.5401 86.4743 29.9607C86.2252 30.3757 85.9845 30.788 85.7521 31.1975V31.322ZM98.2365 35.3396V25.47H98.0871L95.1071 27.5701V25.5613L98.2365 23.3616H100.37V35.3396H98.2365Z" fill="black"/>
<rect opacity="0.35" x="334" y="23.5" width="24" height="12" rx="3.8" stroke="black"/>
<path opacity="0.4" d="M359.5 27.7812V31.8567C360.305 31.5116 360.828 30.7086 360.828 29.819C360.828 28.9294 360.305 28.1264 359.5 27.7812" fill="black"/>
<rect x="335.5" y="25" width="21" height="9" rx="2.5" fill="black"/>
<path fill-rule="evenodd" clip-rule="evenodd" d="M317.771 26.104C320.258 26.1041 322.65 27.0262 324.452 28.6796C324.588 28.8073 324.805 28.8057 324.939 28.676L326.236 27.4126C326.304 27.3468 326.341 27.2577 326.341 27.165C326.34 27.0724 326.302 26.9837 326.233 26.9187C321.502 22.544 314.038 22.544 309.307 26.9187C309.239 26.9837 309.2 27.0723 309.199 27.165C309.199 27.2577 309.236 27.3468 309.304 27.4126L310.602 28.676C310.735 28.8059 310.952 28.8075 311.088 28.6796C312.891 27.0261 315.283 26.104 317.771 26.104ZM317.767 30.3243C319.124 30.3242 320.433 30.8359 321.439 31.76C321.576 31.8912 321.79 31.8883 321.923 31.7536L323.21 30.4343C323.278 30.3651 323.315 30.2712 323.314 30.1737C323.313 30.0761 323.274 29.9831 323.205 29.9153C320.141 27.0244 315.396 27.0244 312.332 29.9153C312.263 29.9831 312.224 30.0762 312.223 30.1738C312.222 30.2714 312.26 30.3652 312.327 30.4343L313.614 31.7536C313.747 31.8883 313.961 31.8912 314.097 31.76C315.103 30.8365 316.411 30.3248 317.767 30.3243ZM320.292 33.1178C320.294 33.2232 320.256 33.3247 320.189 33.3985L318.012 35.8533C317.949 35.9254 317.862 35.966 317.771 35.966C317.68 35.966 317.593 35.9254 317.529 35.8533L315.352 33.3985C315.285 33.3247 315.248 33.2231 315.25 33.1177C315.252 33.0124 315.293 32.9126 315.363 32.842C316.753 31.5281 318.789 31.5281 320.179 32.842C320.249 32.9127 320.29 33.0125 320.292 33.1178Z" fill="black"/>
<path fill-rule="evenodd" clip-rule="evenodd" d="M301.7 24.6821C301.7 24.0491 301.222 23.5359 300.633 23.5359H299.567C298.978 23.5359 298.5 24.0491 298.5 24.6821V34.6161C298.5 35.2491 298.978 35.7623 299.567 35.7623H300.633C301.222 35.7623 301.7 35.2491 301.7 34.6161V24.6821ZM294.266 25.9812H295.333C295.922 25.9812 296.399 26.5067 296.399 27.1549V34.5886C296.399 35.2368 295.922 35.7623 295.333 35.7623H294.266C293.677 35.7623 293.199 35.2368 293.199 34.5886V27.1549C293.199 26.5067 293.677 25.9812 294.266 25.9812ZM289.934 28.6302H288.867C288.278 28.6302 287.801 29.1624 287.801 29.8189V34.5736C287.801 35.2301 288.278 35.7623 288.867 35.7623H289.934C290.523 35.7623 291.001 35.2301 291.001 34.5736V29.8189C291.001 29.1624 290.523 28.6302 289.934 28.6302ZM284.633 31.0755H283.567C282.978 31.0755 282.5 31.6001 282.5 32.2472V34.5906C282.5 35.2377 282.978 35.7623 283.567 35.7623H284.633C285.222 35.7623 285.7 35.2377 285.7 34.5906V32.2472C285.7 31.6001 285.222 31.0755 284.633 31.0755Z" fill="black"/>
<mask id="path-8-inside-1_4690_727" fill="white">
<path d="M0 40H393V94H0V40Z"/>
</mask>
<path d="M0 40H393V94H0V40Z" fill="white"/>
<path d="M393 92.5H0V95.5H393V92.5Z" fill="#F2F5F7" mask="url(#path-8-inside-1_4690_727)"/>
<path d="M188.586 71.4062V72.6562H175.773V71.4062H181.414V68.9531H177.336V64.5H185.555V62.5312H177.305V61.3125H187.023V65.6875H178.805V67.7344H187.352V68.9531H182.883V71.4062H188.586ZM200.695 61.75V63.25C200.695 65.0625 200.695 67.0312 200.18 70.0156L198.664 69.875C199.227 67.0781 199.227 65.0156 199.227 63.25V62.9688H190.977V61.75H200.695ZM202.367 71.1094V72.3438H189.602V71.1094H202.367ZM215.039 60.3438V70.5156H213.555V60.3438H215.039ZM215.461 72.8281V74.0312H205.883V69.4844H207.383V72.8281H215.461ZM207.445 61.2812C209.555 61.2812 211.164 62.7188 211.164 64.75C211.164 66.8125 209.555 68.2344 207.445 68.2344C205.336 68.2344 203.711 66.8125 203.711 64.75C203.711 62.7188 205.336 61.2812 207.445 61.2812ZM207.445 62.5781C206.133 62.5781 205.164 63.4688 205.164 64.75C205.164 66.0625 206.133 66.9375 207.445 66.9375C208.727 66.9375 209.711 66.0625 209.711 64.75C209.711 63.4688 208.727 62.5781 207.445 62.5781Z" fill="#343A40"/>
<path d="M28 58L20 67L28 76" stroke="#6B7280"/>
<path d="M43.2861 202.029V208.401H46.2891V210.989H43.2861V218.216H40.1611V202.029H43.2861ZM44.0918 221.365V223.855H28.8818V216.507H31.9824V221.365H44.0918ZM31.9092 203.47C35.3027 203.47 37.9639 205.813 37.9639 209.109C37.9639 212.356 35.3027 214.749 31.9092 214.749C28.4912 214.749 25.8057 212.356 25.8057 209.109C25.8057 205.813 28.4912 203.47 31.9092 203.47ZM31.9092 206.18C30.2246 206.155 28.8574 207.254 28.8818 209.109C28.8574 210.916 30.2246 212.039 31.9092 212.039C33.6182 212.039 34.9121 210.916 34.9365 209.109C34.9121 207.254 33.6182 206.155 31.9092 206.18ZM51.6846 203.177V211.893C54.8828 211.856 57.2876 211.697 59.9609 211.185L60.3027 213.699C57.2021 214.285 54.3701 214.432 50.3662 214.432H48.5352V203.177H51.6846ZM65.9912 202.029V215.384H62.8906V210.257H57.4463V207.889H62.8906V206.424H57.4463V204.031H62.8906V202.029H65.9912ZM58.3984 215.628C63.1348 215.628 66.04 217.239 66.0645 219.974C66.04 222.684 63.1348 224.271 58.3984 224.271C53.6621 224.271 50.7568 222.684 50.7568 219.974C50.7568 217.239 53.6621 215.628 58.3984 215.628ZM58.3984 218.069C55.4443 218.069 53.8574 218.704 53.8574 219.974C53.8574 221.194 55.4443 221.854 58.3984 221.854C61.3525 221.854 62.9639 221.194 62.9639 219.974C62.9639 218.704 61.3525 218.069 58.3984 218.069ZM86.4014 202.029V210.721H89.6729V213.284H86.4014V224.246H83.3252V202.029H86.4014ZM81.8115 205.35V207.84H68.75V205.35H73.7793V202.371H76.9043V205.35H81.8115ZM75.3418 209.085C78.5889 209.085 81.0059 211.282 81.0059 214.383C81.0059 217.483 78.5889 219.681 75.3418 219.681C72.0703 219.681 69.6533 217.483 69.6533 214.383C69.6533 211.282 72.0703 209.085 75.3418 209.085ZM75.3418 211.6C73.7793 211.624 72.6318 212.674 72.6318 214.383C72.6318 216.116 73.7793 217.142 75.3418 217.117C76.9043 217.142 78.0273 216.116 78.0273 214.383C78.0273 212.674 76.9043 211.624 75.3418 211.6ZM97.6074 207.62C97.6074 211.209 98.6084 214.92 101.636 216.873L99.9512 219.29C98.0347 218.13 96.814 216.226 96.1182 213.943C95.3125 216.458 93.9819 218.558 91.9678 219.778L90.0635 217.483C93.3594 215.433 94.5801 211.526 94.5801 207.767V203.934H97.6074V207.62ZM109.741 202.029V224.246H106.763V202.029H109.741ZM105.078 202.347V223.221H102.173V212.063H99.292V209.524H102.173V202.347H105.078ZM132.422 219.095V221.658H112.085V219.095H116.626V213.65C114.905 212.625 113.867 211.05 113.867 209.085C113.867 205.496 117.383 203.104 122.217 203.104C127.026 203.104 130.566 205.496 130.591 209.085C130.579 211.001 129.565 212.564 127.905 213.602V219.095H132.422ZM122.217 205.569C119.043 205.569 116.943 206.839 116.943 209.085C116.943 211.258 119.043 212.601 122.217 212.601C125.366 212.601 127.49 211.258 127.515 209.085C127.49 206.839 125.366 205.569 122.217 205.569ZM119.702 219.095H124.756V214.773C123.962 214.932 123.108 215.018 122.217 215.018C121.326 215.018 120.483 214.944 119.702 214.773V219.095ZM142.334 219.852C141.187 219.852 140.259 218.924 140.283 217.801C140.259 216.678 141.187 215.774 142.334 215.774C143.408 215.774 144.36 216.678 144.36 217.801C144.36 218.924 143.408 219.852 142.334 219.852ZM142.334 210.55C141.187 210.55 140.259 209.622 140.283 208.499C140.259 207.376 141.187 206.473 142.334 206.473C143.408 206.473 144.36 207.376 144.36 208.499C144.36 209.622 143.408 210.55 142.334 210.55ZM159.399 215.262C159.399 219.852 157.983 223.685 155.64 226.98H152.197C153.882 224.539 155.64 219.656 155.64 215.262C155.64 210.892 153.882 206.009 152.197 203.567H155.64C157.983 206.863 159.399 210.672 159.399 215.262ZM44.4092 232.029V254.295H41.333V242.381H37.207V249.021H26.4893V233.738H29.5898V239.134H34.1553V233.738H37.207V239.866H41.333V232.029H44.4092ZM29.5898 246.531H34.1553V241.575H29.5898V246.531ZM52.9297 232.396V233.958H61.8408V232.396H64.9414V239.866H49.8535V232.396H52.9297ZM52.9297 237.547H61.8408V236.204H52.9297V237.547ZM67.5293 241.087V243.504H47.2656V241.087H67.5293ZM65.0635 244.822V250.438H52.6855V251.756H65.6494V254.1H49.6338V248.265H61.9873V247.093H49.6094V244.822H65.0635ZM87.4756 232.029V243.968H84.3506V232.029H87.4756ZM75.6836 244.944V247.02H84.375V244.944H87.4756V254.002H72.6074V244.944H75.6836ZM75.6836 251.487H84.375V249.437H75.6836V251.487ZM75.293 232.957C78.7598 232.933 81.3721 235.105 81.3721 238.23C81.3721 241.258 78.7598 243.431 75.293 243.431C71.8262 243.431 69.2139 241.258 69.2139 238.23C69.2139 235.105 71.8262 232.933 75.293 232.957ZM75.293 235.545C73.5107 235.545 72.2412 236.546 72.2656 238.23C72.2412 239.891 73.5107 240.867 75.293 240.867C77.0264 240.867 78.2959 239.891 78.2959 238.23C78.2959 236.546 77.0264 235.545 75.293 235.545ZM109.155 232.029V254.246H106.055V232.029H109.155ZM94.751 234.153V246.092C97.7539 246.055 100.977 245.774 104.248 245.14L104.639 247.703C100.732 248.509 97.0703 248.777 93.6279 248.753H91.6748V234.153H94.751ZM129.614 232.029V240.281H132.886V242.82H129.614V254.295H126.489V232.029H129.614ZM123.389 234.08V236.595H116.064V246.336C119.287 246.299 121.948 246.153 124.902 245.628L125.244 248.24C121.802 248.826 118.774 248.924 114.844 248.899H112.964V234.08H123.389ZM136.572 252.22C135.425 252.22 134.497 251.292 134.521 250.169C134.497 249.046 135.425 248.143 136.572 248.143C137.646 248.143 138.599 249.046 138.599 250.169C138.599 251.292 137.646 252.22 136.572 252.22Z" fill="#343A40"/>
<rect x="24.5" y="339.5" width="344" height="39" rx="4.5" fill="white"/>
<rect x="24.5" y="339.5" width="344" height="39" rx="4.5" stroke="#DEE2E6"/>
<path d="M46.5957 352.912V365.189H45.2969V352.912H46.5957ZM38.4336 353.938V357.082H41.7285V353.938H43.0137V362.25H37.1348V353.938H38.4336ZM38.4336 361.184H41.7285V358.107H38.4336V361.184ZM55.0176 353.568V358.613H49.1934V353.568H55.0176ZM50.4648 354.621V357.602H53.7324V354.621H50.4648ZM58.6953 352.912V359.188H57.4102V352.912H58.6953ZM58.6953 359.775V362.824H51.9551V364H59.0918V365.039H50.6836V361.881H57.4238V360.787H50.6562V359.775H58.6953ZM70.8633 352.926V361.977H69.5645V357.355H66.8848V359.939H61.2383V353.732H62.5371V355.811H65.5996V353.732H66.8848V356.303H69.5645V352.926H70.8633ZM71.1367 363.85V364.902H62.8652V361.088H64.1777V363.85H71.1367ZM62.5371 358.887H65.5996V356.809H62.5371V358.887ZM83.3594 354.635V355.688H73.2832V354.635H77.6855V353.09H78.9707V354.635H83.3594ZM83.9609 362.729V363.781H72.75V362.729H77.6855V361.102C75.5391 360.972 74.2402 360.124 74.2402 358.764C74.2402 357.287 75.7988 356.426 78.3281 356.426C80.8301 356.426 82.4023 357.287 82.4023 358.764C82.4023 360.124 81.0967 360.972 78.9707 361.102V362.729H83.9609ZM78.3281 357.451C76.5781 357.451 75.5527 357.916 75.5664 358.764C75.5527 359.611 76.5781 360.076 78.3281 360.09C80.0508 360.076 81.0762 359.611 81.0762 358.764C81.0762 357.916 80.0508 357.451 78.3281 357.451ZM98.4258 352.912V359.488H97.127V352.912H98.4258ZM91.6855 360.076V361.457H97.1406V360.076H98.4258V365.012H90.4141V360.076H91.6855ZM91.6855 363.945H97.1406V362.482H91.6855V363.945ZM91.7812 353.473C93.6543 353.473 95.0352 354.635 95.0352 356.316C95.0352 357.998 93.6543 359.16 91.7812 359.146C89.9082 359.16 88.5137 357.998 88.5137 356.316C88.5137 354.635 89.9082 353.473 91.7812 353.473ZM91.7812 354.566C90.6191 354.553 89.7852 355.277 89.7852 356.316C89.7852 357.369 90.6191 358.08 91.7812 358.08C92.9297 358.08 93.7637 357.369 93.7637 356.316C93.7637 355.277 92.9297 354.553 91.7812 354.566ZM106.205 353.65V357.219H102.158V358.914C104.291 358.921 105.453 358.873 106.834 358.613L106.957 359.666C105.467 359.926 104.209 359.967 101.762 359.967H100.873V356.234H104.906V354.689H100.859V353.65H106.205ZM110.58 352.926V360.459H109.281V358.299H106.984V357.26H109.281V355.742H106.984V354.703H109.281V352.926H110.58ZM110.58 361.074V365.176H109.281V362.127H102.268V361.074H110.58Z" fill="#CED4DA"/>
<rect x="24.5" y="285.5" width="344" height="39" rx="4.5" fill="white"/>
<rect x="24.5" y="285.5" width="344" height="39" rx="4.5" stroke="#DEE2E6"/>
<path d="M46.5957 298.912V311.189H45.2969V298.912H46.5957ZM40.0469 299.828C41.8652 299.828 43.2051 301.496 43.2051 304.121C43.2051 306.76 41.8652 308.428 40.0469 308.428C38.2012 308.428 36.875 306.76 36.875 304.121C36.875 301.496 38.2012 299.828 40.0469 299.828ZM40.0469 300.99C38.9121 300.99 38.1328 302.193 38.1328 304.121C38.1328 306.062 38.9121 307.266 40.0469 307.266C41.168 307.266 41.9473 306.062 41.9473 304.121C41.9473 302.193 41.168 300.99 40.0469 300.99ZM53.7188 300.293V303.479H55.3594V299.145H56.6035V310.561H55.3594V304.545H53.7188V307.936H48.9609V300.293H53.7188ZM50.1914 301.318V306.896H52.502V301.318H50.1914ZM59.0918 298.912V311.162H57.8477V298.912H59.0918ZM64.123 299.322C65.9688 299.336 67.3223 300.471 67.3359 302.07C67.3223 303.684 65.9688 304.805 64.123 304.805C62.2637 304.805 60.8965 303.684 60.8965 302.07C60.8965 300.471 62.2637 299.336 64.123 299.322ZM64.123 300.416C62.9883 300.402 62.1543 301.072 62.168 302.07C62.1543 303.082 62.9883 303.752 64.123 303.752C65.2441 303.752 66.0781 303.082 66.0781 302.07C66.0781 301.072 65.2441 300.402 64.123 300.416ZM70.8086 298.912V305.146H69.5098V298.912H70.8086ZM70.8086 305.707V308.797H64.0547V309.973H71.2188V311.012H62.7969V307.826H69.5234V306.746H62.7559V305.707H70.8086ZM86.3262 298.912V305.488H85.0273V298.912H86.3262ZM79.5859 306.076V307.457H85.041V306.076H86.3262V311.012H78.3145V306.076H79.5859ZM79.5859 309.945H85.041V308.482H79.5859V309.945ZM79.6816 299.473C81.5547 299.473 82.9355 300.635 82.9355 302.316C82.9355 303.998 81.5547 305.16 79.6816 305.146C77.8086 305.16 76.4141 303.998 76.4141 302.316C76.4141 300.635 77.8086 299.473 79.6816 299.473ZM79.6816 300.566C78.5195 300.553 77.6855 301.277 77.6855 302.316C77.6855 303.369 78.5195 304.08 79.6816 304.08C80.8301 304.08 81.6641 303.369 81.6641 302.316C81.6641 301.277 80.8301 300.553 79.6816 300.566ZM94.1055 299.65V303.219H90.0586V304.914C92.1914 304.921 93.3535 304.873 94.7344 304.613L94.8574 305.666C93.3672 305.926 92.1094 305.967 89.6621 305.967H88.7734V302.234H92.8066V300.689H88.7598V299.65H94.1055ZM98.4805 298.926V306.459H97.1816V304.299H94.8848V303.26H97.1816V301.742H94.8848V300.703H97.1816V298.926H98.4805ZM98.4805 307.074V311.176H97.1816V308.127H90.168V307.074H98.4805Z" fill="#CED4DA"/>
<rect x="25" y="423" width="345" height="42" rx="8" fill="#4970FB"/>
<path d="M189.695 448.219V449.859H176.68V448.219H182.164V446.078H178.18V441.297H186.227V439.734H178.164V438.141H188.195V442.859H180.18V444.453H188.523V446.078H184.148V448.219H189.695ZM201.883 438.531V440.234C201.883 442.188 201.883 444.125 201.367 447.062L199.352 446.891C199.883 444.156 199.883 442.125 199.898 440.234V440.125H191.852V438.531H201.883ZM203.477 447.938V449.578H190.508V447.938H203.477ZM216.242 437.234V447.453H214.242V437.234H216.242ZM216.617 449.594V451.188H206.711V446.422H208.727V449.594H216.617ZM208.445 438.141C210.633 438.141 212.336 439.641 212.336 441.719C212.336 443.844 210.633 445.328 208.445 445.328C206.258 445.328 204.555 443.844 204.555 441.719C204.555 439.641 206.258 438.141 208.445 438.141ZM208.445 439.875C207.336 439.859 206.492 440.562 206.508 441.719C206.492 442.906 207.336 443.594 208.445 443.594C209.523 443.594 210.367 442.906 210.367 441.719C210.367 440.562 209.523 439.859 208.445 439.875Z" fill="white"/>
<path d="M134.25 484.414V495.102H132.738V484.414H134.25ZM127.348 485.258V487.859H129.645V485.258H131.121V492.605H125.848V485.258H127.348ZM127.348 491.398H129.645V489.02H127.348V491.398ZM141.445 484.941V489.441H136.23V484.941H141.445ZM137.707 486.137V488.293H139.957V486.137H137.707ZM144.609 484.414V489.805H143.121V484.414H144.609ZM144.609 490.262V493.133H138.961V493.824H144.891V495.008H137.473V492.078H143.145V491.422H137.473V490.262H144.609ZM155.051 484.426V492.289H153.562V488.445H151.594V490.602H146.52V485.117H148.02V486.758H150.117V485.117H151.594V487.25H153.562V484.426H155.051ZM155.273 493.695V494.891H147.949V491.504H149.461V493.695H155.273ZM148.02 489.43H150.117V487.895H148.02V489.43ZM165.727 485.762V486.957H156.855V485.762H160.547V484.52H162.023V485.762H165.727ZM166.195 492.793V493.988H156.434V492.793H160.547V491.562C158.73 491.41 157.629 490.66 157.641 489.488C157.629 488.199 159.035 487.414 161.285 487.426C163.5 487.414 164.918 488.199 164.918 489.488C164.918 490.66 163.811 491.41 162.023 491.562V492.793H166.195ZM161.285 488.586C159.902 488.586 159.164 488.879 159.176 489.488C159.164 490.121 159.902 490.402 161.285 490.402C162.633 490.402 163.383 490.121 163.383 489.488C163.383 488.879 162.633 488.586 161.285 488.586ZM175.652 485.445V486.629H173.496C173.52 487.678 174.293 488.756 175.992 489.184L175.336 490.332C174.105 490.021 173.25 489.354 172.77 488.504C172.295 489.441 171.439 490.186 170.191 490.531L169.488 489.348C171.188 488.908 171.984 487.783 172.008 486.629H169.863V485.445H172.008V484.367H173.52V485.445H175.652ZM178.031 484.414V486.805H179.473V488.035H178.031V490.496H176.531V484.414H178.031ZM178.16 490.953V492.125H175.453C175.723 492.91 176.771 493.672 178.629 493.918L178.102 495.055C176.385 494.826 175.178 494.141 174.562 493.227C173.953 494.135 172.752 494.803 171.059 495.031L170.52 493.895C172.395 493.666 173.432 492.928 173.707 492.125H170.977V490.953H178.16ZM188.906 484.414V495.078H187.395V484.414H188.906ZM185.707 485.527C185.707 488.762 184.57 491.445 180.762 493.25L179.977 492.055C182.73 490.754 183.943 489.066 184.184 486.699H180.551V485.527H185.707Z" fill="#343A40"/>
<path d="M200 483.25V496.75" stroke="#ADB5BD"/>
<path d="M219.539 484.414V495.078H218.051V484.414H219.539ZM210.621 492.066C211.436 492.061 212.367 492.061 213.34 492.031V491.129C212.168 490.924 211.406 490.197 211.418 489.195C211.406 488 212.496 487.191 214.066 487.191C215.648 487.191 216.75 488 216.75 489.195C216.75 490.191 215.988 490.918 214.816 491.129V491.984C215.707 491.943 216.609 491.873 217.465 491.762L217.57 492.863C215.238 493.262 212.719 493.285 210.82 493.285L210.621 492.066ZM217.312 485.598V486.77H210.832V485.598H213.34V484.461H214.828V485.598H217.312ZM214.066 488.328C213.34 488.328 212.824 488.645 212.836 489.195C212.824 489.758 213.34 490.062 214.066 490.062C214.816 490.062 215.32 489.758 215.32 489.195C215.32 488.645 214.816 488.328 214.066 488.328ZM229.98 484.426V492.477H228.48V491.633H226.441V490.613H228.48V484.426H229.98ZM230.215 493.695V494.891H222.27V491.703H223.758V490.285C222.803 490.326 221.895 490.332 221.086 490.332L220.91 489.148C222.867 489.137 225.504 489.113 227.754 488.832L227.836 489.898C226.992 490.039 226.119 490.139 225.258 490.203V492.23H223.758V493.695H230.215ZM224.379 484.789C225.926 484.777 227.039 485.562 227.039 486.699C227.039 487.836 225.926 488.574 224.379 488.574C222.797 488.574 221.695 487.836 221.695 486.699C221.695 485.562 222.785 484.777 224.379 484.789ZM224.379 485.879C223.617 485.879 223.102 486.172 223.113 486.699C223.102 487.215 223.617 487.496 224.379 487.496C225.094 487.496 225.609 487.215 225.621 486.699C225.609 486.172 225.094 485.879 224.379 485.879ZM239.73 484.414V488.504H241.242V489.734H239.73V495.055H238.23V484.414H239.73ZM236.883 485.504C236.871 488.691 235.629 491.457 232.043 493.215L231.199 492.066C233.725 490.801 235.078 489.102 235.359 486.723H231.809V485.504H236.883ZM250.617 484.414V490.145H249.117V484.414H250.617ZM244.957 490.613V491.609H249.129V490.613H250.617V494.961H243.48V490.613H244.957ZM244.957 493.754H249.129V492.77H244.957V493.754ZM244.77 484.859C246.434 484.848 247.688 485.891 247.688 487.391C247.688 488.844 246.434 489.887 244.77 489.887C243.105 489.887 241.852 488.844 241.852 487.391C241.852 485.891 243.105 484.848 244.77 484.859ZM244.77 486.102C243.914 486.102 243.305 486.582 243.316 487.391C243.305 488.188 243.914 488.656 244.77 488.656C245.602 488.656 246.211 488.188 246.211 487.391C246.211 486.582 245.602 486.102 244.77 486.102Z" fill="#343A40"/>
<rect x="129" y="839" width="135" height="5" rx="2.5" fill="black"/>
</g>
<defs>
<clipPath id="clip0_4690_727">
<rect width="393" height="852" rx="20" fill="white"/>
</clipPath>
</defs>
</svg>
