<svg width="393" height="852" viewBox="0 0 393 852" fill="none" xmlns="http://www.w3.org/2000/svg">
<g clip-path="url(#clip0_4690_796)">
<rect width="393" height="852" rx="20" fill="white"/>
<path d="M71.4831 23.0627C72.125 23.0627 72.7337 23.1817 73.3092 23.4197C73.8847 23.6521 74.3939 24.0173 74.8366 24.5154C75.2848 25.0079 75.6362 25.6415 75.8908 26.4163C76.1453 27.1855 76.2726 28.1124 76.2726 29.197V29.2136C76.2726 30.5583 76.0789 31.7094 75.6915 32.6667C75.3042 33.6241 74.748 34.3601 74.0231 34.8748C73.3037 35.3839 72.4432 35.6384 71.4415 35.6384C70.7055 35.6384 70.0415 35.5056 69.4494 35.24C68.8628 34.9688 68.3758 34.5981 67.9884 34.1277C67.6066 33.6518 67.3493 33.1095 67.2164 32.5007L67.1998 32.4094H69.2999L69.3331 32.4924C69.4383 32.7691 69.5877 33.0126 69.7814 33.2229C69.9806 33.4332 70.2186 33.5964 70.4953 33.7126C70.7775 33.8233 71.0929 33.8787 71.4415 33.8787C72.0724 33.8787 72.5871 33.6933 72.9855 33.3225C73.3895 32.9462 73.6911 32.4454 73.8903 31.8201C74.095 31.1892 74.2112 30.4919 74.2389 29.7283C74.2444 29.6453 74.2472 29.565 74.2472 29.4875C74.2472 29.4045 74.2472 29.3243 74.2472 29.2468L73.8737 27.2463C73.8737 26.7926 73.7685 26.3803 73.5582 26.0095C73.348 25.6388 73.063 25.3455 72.7033 25.1296C72.3491 24.9138 71.9479 24.8059 71.4997 24.8059C71.068 24.8059 70.6723 24.9111 70.3126 25.1213C69.9529 25.3316 69.6652 25.6194 69.4494 25.9846C69.2335 26.3443 69.1256 26.7483 69.1256 27.1965V27.2131C69.1256 27.678 69.228 28.0903 69.4328 28.45C69.6375 28.8041 69.917 29.0836 70.2711 29.2883C70.6253 29.4931 71.0293 29.5955 71.4831 29.5955C71.9368 29.5955 72.3436 29.4958 72.7033 29.2966C73.063 29.0974 73.348 28.8207 73.5582 28.4666C73.7685 28.1124 73.8737 27.7112 73.8737 27.2629V27.2463H74.3717V29.4543H74.0812C73.9373 29.7698 73.7243 30.0631 73.442 30.3342C73.1598 30.6054 72.8112 30.824 72.3961 30.99C71.9866 31.156 71.5052 31.239 70.9518 31.239C70.1881 31.239 69.513 31.0675 68.9264 30.7244C68.3398 30.3813 67.8777 29.9109 67.5402 29.3132C67.2081 28.7156 67.0421 28.0404 67.0421 27.2878V27.2712C67.0421 26.4578 67.2303 25.7356 67.6066 25.1047C67.9884 24.4683 68.5141 23.9703 69.1837 23.6106C69.8589 23.2454 70.6253 23.0627 71.4831 23.0627ZM80.0412 33.7292C79.6649 33.7292 79.3494 33.6047 79.0949 33.3557C78.8458 33.1012 78.7213 32.7913 78.7213 32.426C78.7213 32.0553 78.8458 31.7454 79.0949 31.4963C79.3494 31.2418 79.6649 31.1145 80.0412 31.1145C80.423 31.1145 80.7384 31.2418 80.9874 31.4963C81.2365 31.7454 81.361 32.0553 81.361 32.426C81.361 32.7913 81.2365 33.1012 80.9874 33.3557C80.7384 33.6047 80.423 33.7292 80.0412 33.7292ZM80.0412 27.5701C79.6649 27.5701 79.3494 27.4456 79.0949 27.1965C78.8458 26.942 78.7213 26.6321 78.7213 26.2668C78.7213 25.8961 78.8458 25.5862 79.0949 25.3372C79.3494 25.0826 79.6649 24.9553 80.0412 24.9553C80.423 24.9553 80.7384 25.0826 80.9874 25.3372C81.2365 25.5862 81.361 25.8961 81.361 26.2668C81.361 26.6321 81.2365 26.942 80.9874 27.1965C80.7384 27.4456 80.423 27.5701 80.0412 27.5701ZM89.6203 35.3396V33.0403H83.7599V31.2888C84.0753 30.752 84.3908 30.2125 84.7062 29.6702C85.0272 29.1278 85.3509 28.5883 85.6774 28.0515C86.0094 27.5092 86.3387 26.9752 86.6652 26.4495C86.9972 25.9182 87.3265 25.3953 87.653 24.8806C87.985 24.3604 88.317 23.8541 88.6491 23.3616H91.6623V31.2722H93.2809V33.0403H91.6623V35.3396H89.6203ZM85.7521 31.322H89.6535V25.0715H89.5289C89.2855 25.4478 89.0337 25.8352 88.7736 26.2336C88.519 26.6321 88.2617 27.0388 88.0016 27.4539C87.7415 27.8689 87.4842 28.2867 87.2296 28.7073C86.9751 29.1223 86.7233 29.5401 86.4743 29.9607C86.2252 30.3757 85.9845 30.788 85.7521 31.1975V31.322ZM98.2365 35.3396V25.47H98.0871L95.1071 27.5701V25.5613L98.2365 23.3616H100.37V35.3396H98.2365Z" fill="black"/>
<rect opacity="0.35" x="334" y="23.5" width="24" height="12" rx="3.8" stroke="black"/>
<path opacity="0.4" d="M359.5 27.7812V31.8567C360.305 31.5116 360.828 30.7086 360.828 29.819C360.828 28.9294 360.305 28.1264 359.5 27.7812" fill="black"/>
<rect x="335.5" y="25" width="21" height="9" rx="2.5" fill="black"/>
<path fill-rule="evenodd" clip-rule="evenodd" d="M317.771 26.104C320.258 26.1041 322.65 27.0262 324.452 28.6796C324.588 28.8073 324.805 28.8057 324.939 28.676L326.236 27.4126C326.304 27.3468 326.341 27.2577 326.341 27.165C326.34 27.0724 326.302 26.9837 326.233 26.9187C321.502 22.544 314.038 22.544 309.307 26.9187C309.239 26.9837 309.2 27.0723 309.199 27.165C309.199 27.2577 309.236 27.3468 309.304 27.4126L310.602 28.676C310.735 28.8059 310.952 28.8075 311.088 28.6796C312.891 27.0261 315.283 26.104 317.771 26.104ZM317.767 30.3243C319.124 30.3242 320.433 30.8359 321.439 31.76C321.576 31.8912 321.79 31.8883 321.923 31.7536L323.21 30.4343C323.278 30.3651 323.315 30.2712 323.314 30.1737C323.313 30.0761 323.274 29.9831 323.205 29.9153C320.141 27.0244 315.396 27.0244 312.332 29.9153C312.263 29.9831 312.224 30.0762 312.223 30.1738C312.222 30.2714 312.26 30.3652 312.327 30.4343L313.614 31.7536C313.747 31.8883 313.961 31.8912 314.097 31.76C315.103 30.8365 316.411 30.3248 317.767 30.3243ZM320.292 33.1178C320.294 33.2232 320.256 33.3247 320.189 33.3985L318.012 35.8533C317.949 35.9254 317.862 35.966 317.771 35.966C317.68 35.966 317.593 35.9254 317.529 35.8533L315.352 33.3985C315.285 33.3247 315.248 33.2231 315.25 33.1177C315.252 33.0124 315.293 32.9126 315.363 32.842C316.753 31.5281 318.789 31.5281 320.179 32.842C320.249 32.9127 320.29 33.0125 320.292 33.1178Z" fill="black"/>
<path fill-rule="evenodd" clip-rule="evenodd" d="M301.7 24.6821C301.7 24.0491 301.222 23.5359 300.633 23.5359H299.567C298.978 23.5359 298.5 24.0491 298.5 24.6821V34.6161C298.5 35.2491 298.978 35.7623 299.567 35.7623H300.633C301.222 35.7623 301.7 35.2491 301.7 34.6161V24.6821ZM294.266 25.9812H295.333C295.922 25.9812 296.399 26.5067 296.399 27.1549V34.5886C296.399 35.2368 295.922 35.7623 295.333 35.7623H294.266C293.677 35.7623 293.199 35.2368 293.199 34.5886V27.1549C293.199 26.5067 293.677 25.9812 294.266 25.9812ZM289.934 28.6302H288.867C288.278 28.6302 287.801 29.1624 287.801 29.8189V34.5736C287.801 35.2301 288.278 35.7623 288.867 35.7623H289.934C290.523 35.7623 291.001 35.2301 291.001 34.5736V29.8189C291.001 29.1624 290.523 28.6302 289.934 28.6302ZM284.633 31.0755H283.567C282.978 31.0755 282.5 31.6001 282.5 32.2472V34.5906C282.5 35.2377 282.978 35.7623 283.567 35.7623H284.633C285.222 35.7623 285.7 35.2377 285.7 34.5906V32.2472C285.7 31.6001 285.222 31.0755 284.633 31.0755Z" fill="black"/>
<mask id="path-8-inside-1_4690_796" fill="white">
<path d="M0 40H393V94H0V40Z"/>
</mask>
<path d="M0 40H393V94H0V40Z" fill="white"/>
<path d="M393 92.5H0V95.5H393V92.5Z" fill="#F2F5F7" mask="url(#path-8-inside-1_4690_796)"/>
<path d="M175.969 60.9844V62.1719H170.953V63.4688H175.703V64.6094H170.953V66C173.594 65.9922 175.086 65.9375 176.891 65.6562L177.031 66.8281C175.094 67.1406 173.484 67.2031 170.562 67.2031H169.469V60.9844H175.969ZM179.859 60.3281V63.2812H181.891V64.5H179.859V67.6094H178.375V60.3281H179.859ZM179.859 68.25V71.6875H172.297V73.0312H180.344V74.1875H170.844V70.5938H178.391V69.4219H170.812V68.25H179.859ZM191.141 66.9688V68.1562H188.109V70.25C189.391 70.1875 190.688 70.0781 191.906 69.9062L192.016 70.9844C188.844 71.5781 185.453 71.5781 182.953 71.6094L182.766 70.375C183.891 70.3672 185.234 70.3594 186.641 70.3125V68.1562H183.797V61.5469H191.078V62.75H185.297V64.25H190.797V65.4062H185.297V66.9688H191.141ZM194.266 60.3281V74.3594H192.781V60.3281H194.266ZM207.422 60.3281V66H209.672V67.2344H207.422V74.3281H205.953V60.3281H207.422ZM204.734 62.5156V63.7344H196.438V62.5156H199.891V60.5156H201.375V62.5156H204.734ZM200.641 64.7656C202.641 64.7656 204.109 66.1094 204.125 68.0156C204.109 69.9375 202.641 71.2656 200.641 71.2812C198.625 71.2656 197.156 69.9375 197.156 68.0156C197.156 66.1094 198.625 64.7656 200.641 64.7656ZM200.641 65.9844C199.453 65.9844 198.562 66.8125 198.578 68.0156C198.562 69.2344 199.453 70.0469 200.641 70.0312C201.828 70.0469 202.703 69.2344 202.703 68.0156C202.703 66.8125 201.828 65.9844 200.641 65.9844ZM221.984 60.3281V74.3281H220.484V60.3281H221.984ZM217.812 61.8281C217.812 65.9219 216.062 69.4844 211.266 71.7812L210.484 70.5781C214.211 68.8047 216.023 66.2812 216.312 63.0156H211.156V61.8281H217.812Z" fill="#343A40"/>
<path d="M28 58L20 67L28 76" stroke="#6B7280"/>
<path d="M196.5 397C235.712 397 267.5 365.212 267.5 326C267.5 286.788 235.712 255 196.5 255C157.288 255 125.5 286.788 125.5 326C125.5 365.212 157.288 397 196.5 397Z" fill="white"/>
<path d="M164.55 326L185.85 347.3L228.45 304.7M267.5 326C267.5 365.212 235.712 397 196.5 397C157.288 397 125.5 365.212 125.5 326C125.5 286.788 157.288 255 196.5 255C235.712 255 267.5 286.788 267.5 326Z" stroke="#4970FB" stroke-width="10" stroke-linecap="round" stroke-linejoin="round"/>
<path d="M103.648 426.023V443.797H101.168V426.023H103.648ZM88.7852 438.777C90.1426 438.768 91.6953 438.768 93.3164 438.719V437.215C91.3633 436.873 90.0938 435.662 90.1133 433.992C90.0938 432 91.9102 430.652 94.5273 430.652C97.1641 430.652 99 432 99 433.992C99 435.652 97.7305 436.863 95.7773 437.215V438.641C97.2617 438.572 98.7656 438.455 100.191 438.27L100.367 440.105C96.4805 440.77 92.2812 440.809 89.1172 440.809L88.7852 438.777ZM99.9375 427.996V429.949H89.1367V427.996H93.3164V426.102H95.7969V427.996H99.9375ZM94.5273 432.547C93.3164 432.547 92.457 433.074 92.4766 433.992C92.457 434.93 93.3164 435.438 94.5273 435.438C95.7773 435.438 96.6172 434.93 96.6172 433.992C96.6172 433.074 95.7773 432.547 94.5273 432.547ZM121.051 426.043V439.461H118.551V438.055H115.152V436.355H118.551V426.043H121.051ZM121.441 441.492V443.484H108.199V438.172H110.68V435.809C109.088 435.877 107.574 435.887 106.227 435.887L105.934 433.914C109.195 433.895 113.59 433.855 117.34 433.387L117.477 435.164C116.07 435.398 114.615 435.564 113.18 435.672V439.051H110.68V441.492H121.441ZM111.715 426.648C114.293 426.629 116.148 427.938 116.148 429.832C116.148 431.727 114.293 432.957 111.715 432.957C109.078 432.957 107.242 431.727 107.242 429.832C107.242 427.938 109.059 426.629 111.715 426.648ZM111.715 428.465C110.445 428.465 109.586 428.953 109.605 429.832C109.586 430.691 110.445 431.16 111.715 431.16C112.906 431.16 113.766 430.691 113.785 429.832C113.766 428.953 112.906 428.465 111.715 428.465ZM136.949 426.727V428.699H131.07V429.812H136.578V431.688H131.07V432.918C134.049 432.908 135.865 432.83 138.023 432.527L138.238 434.441C135.816 434.812 133.707 434.871 130.035 434.871H128.551V426.727H136.949ZM141.988 426.023V429.52H144.391V431.531H141.988V435.164H139.488V426.023H141.988ZM141.988 435.887V440.633H132.672V441.766H142.496V443.68H130.23V438.836H139.508V437.82H130.191V435.887H141.988ZM155.816 434.207V436.16H152.301V438.387C153.756 438.309 155.23 438.172 156.617 437.977L156.812 439.773C152.867 440.555 148.648 440.555 145.543 440.594L145.25 438.562C146.588 438.562 148.16 438.553 149.82 438.504V436.16H146.5V427.469H155.758V429.461H149.02V430.867H155.406V432.762H149.02V434.207H155.816ZM160.113 426.023V443.836H157.633V426.023H160.113ZM176.48 426.023V432.84H179V434.891H176.48V443.758H173.98V426.023H176.48ZM171.734 427.84C171.715 433.152 169.645 437.762 163.668 440.691L162.262 438.777C166.471 436.668 168.727 433.836 169.195 429.871H163.277V427.84H171.734ZM189.703 426.746C192.301 426.746 194.176 428.211 194.176 430.359C194.176 432.098 192.896 433.426 190.992 433.836V435.125C192.379 435.047 193.775 434.92 195.074 434.734L195.27 436.551C191.617 437.195 187.535 437.273 184.566 437.273L184.312 435.301C185.543 435.301 186.979 435.291 188.492 435.242V433.855C186.529 433.465 185.211 432.127 185.23 430.359C185.211 428.211 187.086 426.746 189.703 426.746ZM189.703 428.621C188.434 428.641 187.535 429.246 187.555 430.359C187.535 431.434 188.434 432.078 189.703 432.078C190.973 432.078 191.832 431.434 191.832 430.359C191.832 429.246 190.973 428.641 189.703 428.621ZM198.57 426.043V431.629H200.836V433.699H198.57V439.598H196.07V426.043H198.57ZM199.176 441.473V443.465H186.656V438.406H189.156V441.473H199.176ZM217.906 439.773V441.824H201.637V439.773H205.797V437.059H203.512V431.082H213.57V429.168H203.492V427.176H216.031V433.074H206.012V435.047H216.441V437.059H213.922V439.773H217.906ZM208.219 439.773H211.48V437.059H208.219V439.773ZM229.508 433.25V435.242H226.051V438.152C227.516 438.104 228.98 438.006 230.367 437.859L230.562 439.676C226.676 440.281 222.633 440.301 219.293 440.301L219 438.27C220.416 438.279 221.959 438.279 223.551 438.23V435.242H220.172V427.605H229.41V429.578H222.652V433.25H229.508ZM233.863 426.023V443.836H231.383V426.023H233.863ZM242.906 437.371C242.887 438.826 243.492 440.32 244.957 441.316C246.412 440.262 247.008 438.699 247.027 437.371V436.648H249.469V437.371C249.469 439.227 250.445 440.984 252.867 441.727L251.598 443.562C249.908 442.977 248.805 441.883 248.199 440.477C247.604 441.863 246.559 443.074 244.957 443.719C243.316 443.113 242.281 441.961 241.695 440.574C241.061 441.893 239.967 442.977 238.355 443.562L237.145 441.727C239.488 440.945 240.465 439.148 240.484 437.371V436.648H242.906V437.371ZM241.168 426.941C243.404 426.922 245.24 428.23 245.738 430.145H248.707V426.023H251.188V435.984H248.707V432.176H245.738C245.27 434.139 243.424 435.457 241.168 435.457C238.453 435.457 236.422 433.68 236.422 431.18C236.422 428.719 238.453 426.922 241.168 426.941ZM241.168 429.012C239.801 429.012 238.805 429.812 238.824 431.18C238.805 432.527 239.801 433.387 241.168 433.387C242.496 433.387 243.473 432.527 243.492 431.18C243.473 429.812 242.496 429.012 241.168 429.012ZM257.848 436.688V438.191H265.172V436.688H267.652V443.602H255.387V436.688H257.848ZM257.848 441.648H265.172V440.086H257.848V441.648ZM269.703 433.777V435.789H253.492V433.777H269.703ZM262.887 426.805C262.887 428.582 264.938 430.594 268.902 431.043L268.023 432.996C264.957 432.605 262.74 431.336 261.598 429.617C260.455 431.336 258.229 432.605 255.191 432.996L254.293 431.043C258.258 430.574 260.309 428.621 260.328 426.805V426.199H262.887V426.805ZM285.719 426.023V443.797H283.238V426.023H285.719ZM274.195 427.723V437.273C276.598 437.244 279.176 437.02 281.793 436.512L282.105 438.562C278.98 439.207 276.051 439.422 273.297 439.402H271.734V427.723H274.195ZM302.086 426.023V432.625H304.703V434.656H302.086V443.836H299.586V426.023H302.086ZM297.105 427.664V429.676H291.246V437.469C293.824 437.439 295.953 437.322 298.316 436.902L298.59 438.992C295.836 439.461 293.414 439.539 290.27 439.52H288.766V427.664H297.105Z" fill="#495057"/>
<path d="M83.126 458.252V459.469C83.126 461 83.126 462.736 82.6748 465.375L81.5811 465.266C82.0732 462.777 82.0732 460.959 82.0732 459.469V459.141H74.7451V458.252H83.126ZM84.6162 466.428V467.316H73.542V466.428H84.6162ZM96.7295 462.969V463.83H85.6416V462.969H90.6592V461.547H87.0498V457.527H95.3486V458.389H88.1025V460.672H95.4307V461.547H91.6982V462.969H96.7295ZM91.1787 464.719C93.79 464.719 95.3486 465.512 95.3623 466.906C95.3486 468.314 93.79 469.094 91.1787 469.107C88.5537 469.094 86.9814 468.314 86.9814 466.906C86.9814 465.512 88.5537 464.719 91.1787 464.719ZM91.1787 465.566C89.2236 465.566 88.0615 466.072 88.0752 466.906C88.0615 467.754 89.2236 468.246 91.1787 468.246C93.1064 468.246 94.2822 467.754 94.2822 466.906C94.2822 466.072 93.1064 465.566 91.1787 465.566ZM107.243 456.953V460.658H109.075V461.561H107.243V465.922H106.177V456.953H107.243ZM107.804 467.945V468.848H99.6416V464.992H100.694V467.945H107.804ZM101.159 457.814C102.978 457.814 104.345 459.045 104.358 460.809C104.345 462.572 102.978 463.803 101.159 463.803C99.3408 463.803 97.96 462.572 97.9736 460.809C97.96 459.045 99.3408 457.814 101.159 457.814ZM101.159 458.758C99.9561 458.758 99.0127 459.605 99.0264 460.809C99.0127 462.012 99.9561 462.859 101.159 462.859C102.39 462.859 103.306 462.012 103.306 460.809C103.306 459.605 102.39 458.758 101.159 458.758ZM113.956 468V458.102H117.429C119.507 458.102 120.478 459.264 120.478 460.727C120.478 461.998 119.726 462.572 118.864 462.805V462.9C119.78 462.955 120.874 463.803 120.874 465.375C120.874 466.865 119.89 468 117.552 468H113.956ZM117.538 466.906C119.083 466.906 119.685 466.223 119.685 465.361C119.685 464.35 118.878 463.502 117.606 463.502H115.187V466.906H117.538ZM117.388 462.436C118.454 462.436 119.302 461.779 119.302 460.74C119.302 459.879 118.728 459.195 117.429 459.195H115.187V462.436H117.388ZM129.104 458.102H130.335V464.65C130.335 466.688 128.817 468.178 126.479 468.178C124.142 468.178 122.624 466.688 122.624 464.65V458.102H123.854V464.555C123.854 465.99 124.853 467.029 126.479 467.029C128.12 467.029 129.104 465.99 129.104 464.555V458.102ZM132.522 468V458.102H135.995C138.073 458.102 139.044 459.264 139.044 460.727C139.044 461.998 138.292 462.572 137.431 462.805V462.9C138.347 462.955 139.44 463.803 139.44 465.375C139.44 466.865 138.456 468 136.118 468H132.522ZM136.104 466.906C137.649 466.906 138.251 466.223 138.251 465.361C138.251 464.35 137.444 463.502 136.173 463.502H133.753V466.906H136.104ZM135.954 462.436C137.021 462.436 137.868 461.779 137.868 460.74C137.868 459.879 137.294 459.195 135.995 459.195H133.753V462.436H135.954ZM141.19 468V458.102H144.663C146.741 458.102 147.712 459.264 147.712 460.727C147.712 461.998 146.96 462.572 146.099 462.805V462.9C147.015 462.955 148.108 463.803 148.108 465.375C148.108 466.865 147.124 468 144.786 468H141.19ZM144.772 466.906C146.317 466.906 146.919 466.223 146.919 465.361C146.919 464.35 146.112 463.502 144.841 463.502H142.421V466.906H144.772ZM144.622 462.436C145.688 462.436 146.536 461.779 146.536 460.74C146.536 459.879 145.962 459.195 144.663 459.195H142.421V462.436H144.622ZM149.858 468V458.102H151.089V466.906H155.683V468H149.858ZM157.323 468V458.102H163.325V459.195H158.554V462.504H163.011V463.584H158.554V466.906H163.394V468H157.323ZM170.202 457.172C172.909 457.172 174.495 457.91 174.495 459.264C174.495 460.645 172.909 461.383 170.202 461.396C167.495 461.383 165.896 460.645 165.896 459.264C165.896 457.91 167.495 457.172 170.202 457.172ZM170.202 457.979C168.179 457.979 167.003 458.471 167.017 459.264C167.003 460.111 168.179 460.576 170.202 460.576C172.212 460.576 173.401 460.111 173.401 459.264C173.401 458.471 172.212 457.979 170.202 457.979ZM175.739 462.217V463.092H164.665V462.217H175.739ZM174.317 464.145V466.865H167.099V468.123H174.687V468.971H166.032V466.072H173.265V464.965H166.005V464.145H174.317ZM190.3 456.953V469.135H189.22V456.953H190.3ZM183.833 457.896C185.638 457.91 186.937 459.551 186.937 462.135C186.937 464.719 185.638 466.359 183.833 466.359C182.015 466.359 180.729 464.719 180.729 462.135C180.729 459.551 182.015 457.91 183.833 457.896ZM183.833 458.854C182.616 458.867 181.769 460.152 181.769 462.135C181.769 464.117 182.616 465.402 183.833 465.402C185.05 465.402 185.897 464.117 185.897 462.135C185.897 460.152 185.05 458.867 183.833 458.854ZM203.452 462.969V463.857H192.378V462.969H195.126V461.26C194.155 460.884 193.608 460.262 193.608 459.441C193.608 458.006 195.249 457.186 197.915 457.186C200.554 457.186 202.208 458.006 202.208 459.441C202.208 460.255 201.668 460.877 200.704 461.246V462.969H203.452ZM197.915 464.787C200.526 464.787 202.085 465.539 202.099 466.934C202.085 468.314 200.526 469.08 197.915 469.08C195.276 469.08 193.718 468.314 193.718 466.934C193.718 465.539 195.276 464.787 197.915 464.787ZM197.915 465.607C195.96 465.621 194.798 466.1 194.812 466.934C194.798 467.754 195.96 468.246 197.915 468.246C199.843 468.246 201.019 467.754 201.019 466.934C201.019 466.1 199.843 465.621 197.915 465.607ZM197.915 458.033C195.933 458.033 194.702 458.566 194.716 459.441C194.702 460.33 195.933 460.85 197.915 460.85C199.884 460.85 201.114 460.33 201.114 459.441C201.114 458.566 199.884 458.033 197.915 458.033ZM196.192 462.969H199.638V461.547C199.125 461.636 198.551 461.684 197.915 461.684C197.279 461.684 196.705 461.636 196.192 461.547V462.969ZM210.548 459.059V459.934H204.45V459.059H206.979V457.322H208.046V459.059H210.548ZM207.499 460.754C209.03 460.754 210.124 461.902 210.138 463.516C210.124 465.143 209.03 466.305 207.499 466.305C205.981 466.305 204.888 465.143 204.888 463.516C204.888 461.902 205.981 460.754 207.499 460.754ZM207.499 461.656C206.542 461.67 205.845 462.449 205.845 463.516C205.845 464.596 206.542 465.375 207.499 465.361C208.47 465.375 209.181 464.596 209.181 463.516C209.181 462.449 208.47 461.67 207.499 461.656ZM214.827 456.953V469.107H213.802V462.969H212.188V468.506H211.177V457.254H212.188V462.08H213.802V456.953H214.827ZM222.716 458.676C222.702 460.303 224.876 461.684 226.995 461.998L226.599 462.846C224.698 462.524 222.853 461.513 222.114 460.043C221.376 461.513 219.523 462.524 217.657 462.846L217.233 461.998C219.339 461.684 221.513 460.303 221.513 458.676V458.594H217.616V457.719H226.599V458.594H222.716V458.676ZM227.651 463.885V464.773H222.62V469.107H221.567V464.773H216.577V463.885H227.651ZM238.753 456.953V469.135H237.673V463.543H234.979V462.627H237.673V460.521H234.979V459.619H237.673V456.953H238.753ZM232.956 460.221C232.956 462.436 234.364 464.65 236.128 465.484L235.485 466.359C234.098 465.655 232.956 464.172 232.423 462.422C231.876 464.24 230.728 465.799 229.36 466.537L228.663 465.676C230.44 464.801 231.862 462.463 231.862 460.221V458.006H232.956V460.221ZM245.056 460.221C245.056 462.422 246.464 464.637 248.228 465.443L247.585 466.318C246.204 465.607 245.062 464.151 244.522 462.422C243.982 464.24 242.841 465.799 241.46 466.537L240.763 465.676C242.54 464.801 243.962 462.463 243.962 460.221V458.006H245.056V460.221ZM250.853 456.953V469.135H249.786V461.984H246.901V461.109H249.786V456.953H250.853ZM265.892 456.953V459.934H267.724V460.822H265.892V463.857H264.825V456.953H265.892ZM262.569 457.746C262.556 460.809 260.409 462.996 256.813 463.98L256.376 463.119C259.37 462.312 261.195 460.692 261.421 458.635H256.923V457.746H262.569ZM265.892 464.418V468.943H258.194V464.418H265.892ZM259.261 465.307V468.068H264.825V465.307H259.261ZM272.563 460.221C272.563 462.367 273.985 464.568 275.708 465.416L275.052 466.277C273.712 465.573 272.591 464.138 272.058 462.449C271.511 464.247 270.362 465.778 268.995 466.51L268.312 465.648C270.089 464.773 271.497 462.436 271.511 460.221V458.006H272.563V460.221ZM277.896 456.953V461.889H279.933V462.818H277.896V469.107H276.829V456.953H277.896ZM290.091 456.953V460.07H291.923V460.986H290.091V464.021H289.024V456.953H290.091ZM283.474 464.555V465.854H289.024V464.555H290.091V468.943H282.407V464.555H283.474ZM283.474 468.082H289.024V466.701H283.474V468.082ZM287.862 458.211V459.1H280.616V458.211H283.706V456.844H284.772V458.211H287.862ZM284.239 459.66C285.989 459.66 287.151 460.494 287.165 461.793C287.151 463.092 285.989 463.926 284.239 463.926C282.476 463.926 281.3 463.092 281.313 461.793C281.3 460.494 282.476 459.66 284.239 459.66ZM284.239 460.494C283.091 460.48 282.325 461.014 282.339 461.793C282.325 462.586 283.091 463.105 284.239 463.105C285.374 463.105 286.14 462.586 286.153 461.793C286.14 461.014 285.374 460.48 284.239 460.494ZM302.71 456.953V469.107H301.644V456.953H302.71ZM294.534 458.156V465.047C296.387 465.04 298.308 464.89 300.345 464.459L300.495 465.375C298.335 465.826 296.407 465.977 294.466 465.977H293.481V458.156H294.534ZM314.194 456.953V461.766H316.231V462.668H314.194V469.135H313.128V456.953H314.194ZM310.995 458.143V459.031H306.388V465.184C308.589 465.184 310.147 465.081 311.952 464.746L312.089 465.676C310.188 466.018 308.589 466.086 306.278 466.086H305.321V458.143H310.995ZM318.173 468.082C317.694 468.082 317.284 467.686 317.298 467.193C317.284 466.715 317.694 466.318 318.173 466.318C318.651 466.318 319.048 466.715 319.048 467.193C319.048 467.686 318.651 468.082 318.173 468.082Z" fill="#495057"/>
<g filter="url(#filter0_d_4690_796)">
<rect x="41" y="501" width="311" height="44" rx="8" fill="#4970FB"/>
<path d="M194.828 516.281V520.391H196.734V521.828H194.828V525.828H193.094V516.281H194.828ZM183.516 524.141C184.578 524.141 185.805 524.133 187.078 524.094V523.234C185.508 523.039 184.516 522.281 184.516 521.172C184.516 519.875 185.875 519.062 187.922 519.078C189.984 519.062 191.328 519.875 191.328 521.172C191.328 522.273 190.359 523.023 188.812 523.219V524.031C190.016 523.977 191.227 523.883 192.359 523.734L192.5 524.938C189.484 525.469 186.188 525.5 183.703 525.5L183.516 524.141ZM194.828 526.438V530.391H193.094V527.797H185.297V526.438H194.828ZM191.984 517.391V518.672H183.875V517.391H187.078V516.156H188.812V517.391H191.984ZM187.922 520.25C186.828 520.234 186.172 520.562 186.188 521.172C186.172 521.75 186.828 522.125 187.922 522.109C189.016 522.125 189.672 521.75 189.672 521.172C189.672 520.562 189.016 520.234 187.922 520.25ZM209.234 516.281V526.484H207.484V516.281H209.234ZM209.625 528.703V530.109H199.891V525.453H201.641V528.703H209.625ZM201.531 517.203C203.672 517.203 205.328 518.688 205.328 520.734C205.328 522.828 203.672 524.281 201.531 524.281C199.375 524.281 197.719 522.828 197.719 520.734C197.719 518.688 199.375 517.203 201.531 517.203ZM201.531 518.719C200.328 518.719 199.406 519.516 199.422 520.734C199.406 521.984 200.328 522.766 201.531 522.766C202.703 522.766 203.625 521.984 203.625 520.734C203.625 519.516 202.703 518.719 201.531 518.719Z" fill="white"/>
</g>
<rect x="129" y="839" width="135" height="5" rx="2.5" fill="black"/>
</g>
<defs>
<filter id="filter0_d_4690_796" x="33" y="496" width="327" height="60" filterUnits="userSpaceOnUse" color-interpolation-filters="sRGB">
<feFlood flood-opacity="0" result="BackgroundImageFix"/>
<feColorMatrix in="SourceAlpha" type="matrix" values="0 0 0 0 0 0 0 0 0 0 0 0 0 0 0 0 0 0 127 0" result="hardAlpha"/>
<feOffset dy="3"/>
<feGaussianBlur stdDeviation="4"/>
<feComposite in2="hardAlpha" operator="out"/>
<feColorMatrix type="matrix" values="0 0 0 0 0 0 0 0 0 0 0 0 0 0 0 0 0 0 0.05 0"/>
<feBlend mode="normal" in2="BackgroundImageFix" result="effect1_dropShadow_4690_796"/>
<feBlend mode="normal" in="SourceGraphic" in2="effect1_dropShadow_4690_796" result="shape"/>
</filter>
<clipPath id="clip0_4690_796">
<rect width="393" height="852" rx="20" fill="white"/>
</clipPath>
</defs>
</svg>
