<svg width="393" height="852" viewBox="0 0 393 852" fill="none" xmlns="http://www.w3.org/2000/svg">
<g clip-path="url(#clip0_4690_762)">
<rect width="393" height="852" rx="20" fill="white"/>
<path d="M71.4831 23.0627C72.125 23.0627 72.7337 23.1817 73.3092 23.4197C73.8847 23.6521 74.3939 24.0173 74.8366 24.5154C75.2848 25.0079 75.6362 25.6415 75.8908 26.4163C76.1453 27.1855 76.2726 28.1124 76.2726 29.197V29.2136C76.2726 30.5583 76.0789 31.7094 75.6915 32.6667C75.3042 33.6241 74.748 34.3601 74.0231 34.8748C73.3037 35.3839 72.4432 35.6384 71.4415 35.6384C70.7055 35.6384 70.0415 35.5056 69.4494 35.24C68.8628 34.9688 68.3758 34.5981 67.9884 34.1277C67.6066 33.6518 67.3493 33.1095 67.2164 32.5007L67.1998 32.4094H69.2999L69.3331 32.4924C69.4383 32.7691 69.5877 33.0126 69.7814 33.2229C69.9806 33.4332 70.2186 33.5964 70.4953 33.7126C70.7775 33.8233 71.0929 33.8787 71.4415 33.8787C72.0724 33.8787 72.5871 33.6933 72.9855 33.3225C73.3895 32.9462 73.6911 32.4454 73.8903 31.8201C74.095 31.1892 74.2112 30.4919 74.2389 29.7283C74.2444 29.6453 74.2472 29.565 74.2472 29.4875C74.2472 29.4045 74.2472 29.3243 74.2472 29.2468L73.8737 27.2463C73.8737 26.7926 73.7685 26.3803 73.5582 26.0095C73.348 25.6388 73.063 25.3455 72.7033 25.1296C72.3491 24.9138 71.9479 24.8059 71.4997 24.8059C71.068 24.8059 70.6723 24.9111 70.3126 25.1213C69.9529 25.3316 69.6652 25.6194 69.4494 25.9846C69.2335 26.3443 69.1256 26.7483 69.1256 27.1965V27.2131C69.1256 27.678 69.228 28.0903 69.4328 28.45C69.6375 28.8041 69.917 29.0836 70.2711 29.2883C70.6253 29.4931 71.0293 29.5955 71.4831 29.5955C71.9368 29.5955 72.3436 29.4958 72.7033 29.2966C73.063 29.0974 73.348 28.8207 73.5582 28.4666C73.7685 28.1124 73.8737 27.7112 73.8737 27.2629V27.2463H74.3717V29.4543H74.0812C73.9373 29.7698 73.7243 30.0631 73.442 30.3342C73.1598 30.6054 72.8112 30.824 72.3961 30.99C71.9866 31.156 71.5052 31.239 70.9518 31.239C70.1881 31.239 69.513 31.0675 68.9264 30.7244C68.3398 30.3813 67.8777 29.9109 67.5402 29.3132C67.2081 28.7156 67.0421 28.0404 67.0421 27.2878V27.2712C67.0421 26.4578 67.2303 25.7356 67.6066 25.1047C67.9884 24.4683 68.5141 23.9703 69.1837 23.6106C69.8589 23.2454 70.6253 23.0627 71.4831 23.0627ZM80.0412 33.7292C79.6649 33.7292 79.3494 33.6047 79.0949 33.3557C78.8458 33.1012 78.7213 32.7913 78.7213 32.426C78.7213 32.0553 78.8458 31.7454 79.0949 31.4963C79.3494 31.2418 79.6649 31.1145 80.0412 31.1145C80.423 31.1145 80.7384 31.2418 80.9874 31.4963C81.2365 31.7454 81.361 32.0553 81.361 32.426C81.361 32.7913 81.2365 33.1012 80.9874 33.3557C80.7384 33.6047 80.423 33.7292 80.0412 33.7292ZM80.0412 27.5701C79.6649 27.5701 79.3494 27.4456 79.0949 27.1965C78.8458 26.942 78.7213 26.6321 78.7213 26.2668C78.7213 25.8961 78.8458 25.5862 79.0949 25.3372C79.3494 25.0826 79.6649 24.9553 80.0412 24.9553C80.423 24.9553 80.7384 25.0826 80.9874 25.3372C81.2365 25.5862 81.361 25.8961 81.361 26.2668C81.361 26.6321 81.2365 26.942 80.9874 27.1965C80.7384 27.4456 80.423 27.5701 80.0412 27.5701ZM89.6203 35.3396V33.0403H83.7599V31.2888C84.0753 30.752 84.3908 30.2125 84.7062 29.6702C85.0272 29.1278 85.3509 28.5883 85.6774 28.0515C86.0094 27.5092 86.3387 26.9752 86.6652 26.4495C86.9972 25.9182 87.3265 25.3953 87.653 24.8806C87.985 24.3604 88.317 23.8541 88.6491 23.3616H91.6623V31.2722H93.2809V33.0403H91.6623V35.3396H89.6203ZM85.7521 31.322H89.6535V25.0715H89.5289C89.2855 25.4478 89.0337 25.8352 88.7736 26.2336C88.519 26.6321 88.2617 27.0388 88.0016 27.4539C87.7415 27.8689 87.4842 28.2867 87.2296 28.7073C86.9751 29.1223 86.7233 29.5401 86.4743 29.9607C86.2252 30.3757 85.9845 30.788 85.7521 31.1975V31.322ZM98.2365 35.3396V25.47H98.0871L95.1071 27.5701V25.5613L98.2365 23.3616H100.37V35.3396H98.2365Z" fill="black"/>
<rect opacity="0.35" x="334" y="23.5" width="24" height="12" rx="3.8" stroke="black"/>
<path opacity="0.4" d="M359.5 27.7812V31.8567C360.305 31.5116 360.828 30.7086 360.828 29.819C360.828 28.9294 360.305 28.1264 359.5 27.7812" fill="black"/>
<rect x="335.5" y="25" width="21" height="9" rx="2.5" fill="black"/>
<path fill-rule="evenodd" clip-rule="evenodd" d="M317.771 26.104C320.258 26.1041 322.65 27.0262 324.452 28.6796C324.588 28.8073 324.805 28.8057 324.939 28.676L326.236 27.4126C326.304 27.3468 326.341 27.2577 326.341 27.165C326.34 27.0724 326.302 26.9837 326.233 26.9187C321.502 22.544 314.038 22.544 309.307 26.9187C309.239 26.9837 309.2 27.0723 309.199 27.165C309.199 27.2577 309.236 27.3468 309.304 27.4126L310.602 28.676C310.735 28.8059 310.952 28.8075 311.088 28.6796C312.891 27.0261 315.283 26.104 317.771 26.104ZM317.767 30.3243C319.124 30.3242 320.433 30.8359 321.439 31.76C321.576 31.8912 321.79 31.8883 321.923 31.7536L323.21 30.4343C323.278 30.3651 323.315 30.2712 323.314 30.1737C323.313 30.0761 323.274 29.9831 323.205 29.9153C320.141 27.0244 315.396 27.0244 312.332 29.9153C312.263 29.9831 312.224 30.0762 312.223 30.1738C312.222 30.2714 312.26 30.3652 312.327 30.4343L313.614 31.7536C313.747 31.8883 313.961 31.8912 314.097 31.76C315.103 30.8365 316.411 30.3248 317.767 30.3243ZM320.292 33.1178C320.294 33.2232 320.256 33.3247 320.189 33.3985L318.012 35.8533C317.949 35.9254 317.862 35.966 317.771 35.966C317.68 35.966 317.593 35.9254 317.529 35.8533L315.352 33.3985C315.285 33.3247 315.248 33.2231 315.25 33.1177C315.252 33.0124 315.293 32.9126 315.363 32.842C316.753 31.5281 318.789 31.5281 320.179 32.842C320.249 32.9127 320.29 33.0125 320.292 33.1178Z" fill="black"/>
<path fill-rule="evenodd" clip-rule="evenodd" d="M301.7 24.6821C301.7 24.0491 301.222 23.5359 300.633 23.5359H299.567C298.978 23.5359 298.5 24.0491 298.5 24.6821V34.6161C298.5 35.2491 298.978 35.7623 299.567 35.7623H300.633C301.222 35.7623 301.7 35.2491 301.7 34.6161V24.6821ZM294.266 25.9812H295.333C295.922 25.9812 296.399 26.5067 296.399 27.1549V34.5886C296.399 35.2368 295.922 35.7623 295.333 35.7623H294.266C293.677 35.7623 293.199 35.2368 293.199 34.5886V27.1549C293.199 26.5067 293.677 25.9812 294.266 25.9812ZM289.934 28.6302H288.867C288.278 28.6302 287.801 29.1624 287.801 29.8189V34.5736C287.801 35.2301 288.278 35.7623 288.867 35.7623H289.934C290.523 35.7623 291.001 35.2301 291.001 34.5736V29.8189C291.001 29.1624 290.523 28.6302 289.934 28.6302ZM284.633 31.0755H283.567C282.978 31.0755 282.5 31.6001 282.5 32.2472V34.5906C282.5 35.2377 282.978 35.7623 283.567 35.7623H284.633C285.222 35.7623 285.7 35.2377 285.7 34.5906V32.2472C285.7 31.6001 285.222 31.0755 284.633 31.0755Z" fill="black"/>
<mask id="path-8-inside-1_4690_762" fill="white">
<path d="M0 40H393V94H0V40Z"/>
</mask>
<path d="M0 40H393V94H0V40Z" fill="white"/>
<path d="M393 92.5H0V95.5H393V92.5Z" fill="#F2F5F7" mask="url(#path-8-inside-1_4690_762)"/>
<path d="M175.969 60.9844V62.1719H170.953V63.4688H175.703V64.6094H170.953V66C173.594 65.9922 175.086 65.9375 176.891 65.6562L177.031 66.8281C175.094 67.1406 173.484 67.2031 170.562 67.2031H169.469V60.9844H175.969ZM179.859 60.3281V63.2812H181.891V64.5H179.859V67.6094H178.375V60.3281H179.859ZM179.859 68.25V71.6875H172.297V73.0312H180.344V74.1875H170.844V70.5938H178.391V69.4219H170.812V68.25H179.859ZM191.141 66.9688V68.1562H188.109V70.25C189.391 70.1875 190.688 70.0781 191.906 69.9062L192.016 70.9844C188.844 71.5781 185.453 71.5781 182.953 71.6094L182.766 70.375C183.891 70.3672 185.234 70.3594 186.641 70.3125V68.1562H183.797V61.5469H191.078V62.75H185.297V64.25H190.797V65.4062H185.297V66.9688H191.141ZM194.266 60.3281V74.3594H192.781V60.3281H194.266ZM207.422 60.3281V66H209.672V67.2344H207.422V74.3281H205.953V60.3281H207.422ZM204.734 62.5156V63.7344H196.438V62.5156H199.891V60.5156H201.375V62.5156H204.734ZM200.641 64.7656C202.641 64.7656 204.109 66.1094 204.125 68.0156C204.109 69.9375 202.641 71.2656 200.641 71.2812C198.625 71.2656 197.156 69.9375 197.156 68.0156C197.156 66.1094 198.625 64.7656 200.641 64.7656ZM200.641 65.9844C199.453 65.9844 198.562 66.8125 198.578 68.0156C198.562 69.2344 199.453 70.0469 200.641 70.0312C201.828 70.0469 202.703 69.2344 202.703 68.0156C202.703 66.8125 201.828 65.9844 200.641 65.9844ZM221.984 60.3281V74.3281H220.484V60.3281H221.984ZM217.812 61.8281C217.812 65.9219 216.062 69.4844 211.266 71.7812L210.484 70.5781C214.211 68.8047 216.023 66.2812 216.312 63.0156H211.156V61.8281H217.812Z" fill="#343A40"/>
<path d="M28 58L20 67L28 76" stroke="#6B7280"/>
<path d="M38.4688 199.023V216.797H35.9883V199.023H38.4688ZM23.6055 211.777C24.9629 211.768 26.5156 211.768 28.1367 211.719V210.215C26.1836 209.873 24.9141 208.662 24.9336 206.992C24.9141 205 26.7305 203.652 29.3477 203.652C31.9844 203.652 33.8203 205 33.8203 206.992C33.8203 208.652 32.5508 209.863 30.5977 210.215V211.641C32.082 211.572 33.5859 211.455 35.0117 211.27L35.1875 213.105C31.3008 213.77 27.1016 213.809 23.9375 213.809L23.6055 211.777ZM34.7578 200.996V202.949H23.957V200.996H28.1367V199.102H30.6172V200.996H34.7578ZM29.3477 205.547C28.1367 205.547 27.2773 206.074 27.2969 206.992C27.2773 207.93 28.1367 208.438 29.3477 208.438C30.5977 208.438 31.4375 207.93 31.4375 206.992C31.4375 206.074 30.5977 205.547 29.3477 205.547ZM55.8711 199.043V212.461H53.3711V211.055H49.9727V209.355H53.3711V199.043H55.8711ZM56.2617 214.492V216.484H43.0195V211.172H45.5V208.809C43.9082 208.877 42.3945 208.887 41.0469 208.887L40.7539 206.914C44.0156 206.895 48.4102 206.855 52.1602 206.387L52.2969 208.164C50.8906 208.398 49.4355 208.564 48 208.672V212.051H45.5V214.492H56.2617ZM46.5352 199.648C49.1133 199.629 50.9688 200.938 50.9688 202.832C50.9688 204.727 49.1133 205.957 46.5352 205.957C43.8984 205.957 42.0625 204.727 42.0625 202.832C42.0625 200.938 43.8789 199.629 46.5352 199.648ZM46.5352 201.465C45.2656 201.465 44.4062 201.953 44.4258 202.832C44.4062 203.691 45.2656 204.16 46.5352 204.16C47.7266 204.16 48.5859 203.691 48.6055 202.832C48.5859 201.953 47.7266 201.465 46.5352 201.465ZM71.7695 199.727V201.699H65.8906V202.812H71.3984V204.688H65.8906V205.918C68.8691 205.908 70.6855 205.83 72.8438 205.527L73.0586 207.441C70.6367 207.812 68.5273 207.871 64.8555 207.871H63.3711V199.727H71.7695ZM76.8086 199.023V202.52H79.2109V204.531H76.8086V208.164H74.3086V199.023H76.8086ZM76.8086 208.887V213.633H67.4922V214.766H77.3164V216.68H65.0508V211.836H74.3281V210.82H65.0117V208.887H76.8086ZM90.6367 207.207V209.16H87.1211V211.387C88.5762 211.309 90.0508 211.172 91.4375 210.977L91.6328 212.773C87.6875 213.555 83.4688 213.555 80.3633 213.594L80.0703 211.562C81.4082 211.562 82.9805 211.553 84.6406 211.504V209.16H81.3203V200.469H90.5781V202.461H83.8398V203.867H90.2266V205.762H83.8398V207.207H90.6367ZM94.9336 199.023V216.836H92.4531V199.023H94.9336ZM113.527 206.992V208.848H97.2578V206.992H113.527ZM111.574 209.727V213.926H101.613V214.941H112.102V216.641H99.1328V212.344H109.113V211.445H99.1133V209.727H111.574ZM111.555 199.336V203.516H101.77V204.473H111.867V206.152H99.2891V201.934H109.055V201.035H99.25V199.336H111.555ZM124.973 199.766C127.688 199.746 129.66 201.289 129.66 203.535C129.66 205.762 127.688 207.324 124.973 207.305C122.258 207.324 120.285 205.762 120.305 203.535C120.285 201.289 122.258 199.746 124.973 199.766ZM124.973 201.758C123.645 201.758 122.707 202.402 122.707 203.535C122.707 204.648 123.645 205.293 124.973 205.273C126.34 205.293 127.297 204.648 127.297 203.535C127.297 202.402 126.34 201.758 124.973 201.758ZM134.152 199.043V216.797H131.691V199.043H134.152ZM119.211 208.398C122.355 208.398 126.828 208.32 130.617 207.754L130.773 209.59C129.309 209.883 127.805 210.068 126.32 210.176V216.27H123.84V210.332C122.277 210.4 120.803 210.41 119.523 210.43L119.211 208.398ZM145.031 201.738V203.711H136.438V201.738H139.523V199.512H141.984V201.738H145.031ZM140.773 204.512C143.039 204.512 144.66 206.27 144.68 208.73C144.66 211.211 143.039 212.969 140.773 212.969C138.508 212.969 136.848 211.211 136.848 208.73C136.848 206.27 138.508 204.512 140.773 204.512ZM140.773 206.582C139.738 206.582 139.035 207.383 139.035 208.73C139.035 210.078 139.738 210.859 140.773 210.859C141.77 210.859 142.473 210.078 142.492 208.73C142.473 207.383 141.77 206.582 140.773 206.582ZM151.828 199.023V216.797H149.465V208.242H148.02V216.035H145.695V199.375H148.02V206.25H149.465V199.023H151.828ZM38.4688 224.023V241.797H35.9883V224.023H38.4688ZM23.6055 236.777C24.9629 236.768 26.5156 236.768 28.1367 236.719V235.215C26.1836 234.873 24.9141 233.662 24.9336 231.992C24.9141 230 26.7305 228.652 29.3477 228.652C31.9844 228.652 33.8203 230 33.8203 231.992C33.8203 233.652 32.5508 234.863 30.5977 235.215V236.641C32.082 236.572 33.5859 236.455 35.0117 236.27L35.1875 238.105C31.3008 238.77 27.1016 238.809 23.9375 238.809L23.6055 236.777ZM34.7578 225.996V227.949H23.957V225.996H28.1367V224.102H30.6172V225.996H34.7578ZM29.3477 230.547C28.1367 230.547 27.2773 231.074 27.2969 231.992C27.2773 232.93 28.1367 233.438 29.3477 233.438C30.5977 233.438 31.4375 232.93 31.4375 231.992C31.4375 231.074 30.5977 230.547 29.3477 230.547ZM55.8711 224.043V237.461H53.3711V236.055H49.9727V234.355H53.3711V224.043H55.8711ZM56.2617 239.492V241.484H43.0195V236.172H45.5V233.809C43.9082 233.877 42.3945 233.887 41.0469 233.887L40.7539 231.914C44.0156 231.895 48.4102 231.855 52.1602 231.387L52.2969 233.164C50.8906 233.398 49.4355 233.564 48 233.672V237.051H45.5V239.492H56.2617ZM46.5352 224.648C49.1133 224.629 50.9688 225.938 50.9688 227.832C50.9688 229.727 49.1133 230.957 46.5352 230.957C43.8984 230.957 42.0625 229.727 42.0625 227.832C42.0625 225.938 43.8789 224.629 46.5352 224.648ZM46.5352 226.465C45.2656 226.465 44.4062 226.953 44.4258 227.832C44.4062 228.691 45.2656 229.16 46.5352 229.16C47.7266 229.16 48.5859 228.691 48.6055 227.832C48.5859 226.953 47.7266 226.465 46.5352 226.465ZM73.0781 224.023V234.57H70.5977V230.371H67.8242V228.359H70.5977V224.023H73.0781ZM67.0039 234.961C70.793 234.98 73.1172 236.23 73.1367 238.398C73.1172 240.547 70.793 241.816 67.0039 241.816C63.2148 241.816 60.8906 240.547 60.8906 238.398C60.8906 236.23 63.2148 234.98 67.0039 234.961ZM67.0039 236.875C64.6406 236.875 63.3711 237.363 63.3711 238.398C63.3711 239.414 64.6406 239.922 67.0039 239.922C69.3672 239.922 70.6562 239.414 70.6562 238.398C70.6562 237.363 69.3672 236.875 67.0039 236.875ZM68.3516 225.098V227.09H64.8164C64.875 229.16 66.125 231.25 68.8984 232.168L67.668 234.121C65.7051 233.486 64.3574 232.197 63.5859 230.586C62.7949 232.402 61.3789 233.867 59.2695 234.59L57.9805 232.617C60.9004 231.641 62.209 229.316 62.2773 227.09H58.7031V225.098H68.3516ZM91.6523 237.695V239.727H75.3828V237.695H82.2383V234.414H77.1016V225.156H79.6016V227.91H87.3555V225.156H89.8359V234.414H84.7188V237.695H91.6523ZM79.6016 232.422H87.3555V229.902H79.6016V232.422ZM108.918 231.992V233.848H92.6484V231.992H108.918ZM106.965 234.727V238.926H97.0039V239.941H107.492V241.641H94.5234V237.344H104.504V236.445H94.5039V234.727H106.965ZM106.945 224.336V228.516H97.1602V229.473H107.258V231.152H94.6797V226.934H104.445V226.035H94.6406V224.336H106.945ZM129.445 224.023V233.574H126.945V224.023H129.445ZM120.012 234.355V236.016H126.965V234.355H129.445V241.602H117.551V234.355H120.012ZM120.012 239.59H126.965V237.949H120.012V239.59ZM119.699 224.766C122.473 224.746 124.562 226.484 124.562 228.984C124.562 231.406 122.473 233.145 119.699 233.145C116.926 233.145 114.836 231.406 114.836 228.984C114.836 226.484 116.926 224.746 119.699 224.766ZM119.699 226.836C118.273 226.836 117.258 227.637 117.277 228.984C117.258 230.312 118.273 231.094 119.699 231.094C121.086 231.094 122.102 230.312 122.102 228.984C122.102 227.637 121.086 226.836 119.699 226.836ZM140.383 225.059V230.605H135.012V232.5C137.658 232.5 139.221 232.412 141.027 232.07L141.262 234.062C139.191 234.434 137.316 234.492 133.879 234.492H132.551V228.75H137.883V227.012H132.512V225.059H140.383ZM146.828 224.043V234.98H144.348V232.246H141.398V230.273H144.348V228.477H141.398V226.504H144.348V224.043H146.828ZM146.828 235.781V241.797H144.348V237.773H134.582V235.781H146.828ZM157.707 226.738V228.711H149.113V226.738H152.199V224.512H154.66V226.738H157.707ZM153.449 229.512C155.715 229.512 157.336 231.27 157.355 233.73C157.336 236.211 155.715 237.969 153.449 237.969C151.184 237.969 149.523 236.211 149.523 233.73C149.523 231.27 151.184 229.512 153.449 229.512ZM153.449 231.582C152.414 231.582 151.711 232.383 151.711 233.73C151.711 235.078 152.414 235.859 153.449 235.859C154.445 235.859 155.148 235.078 155.168 233.73C155.148 232.383 154.445 231.582 153.449 231.582ZM164.504 224.023V241.797H162.141V233.242H160.695V241.035H158.371V224.375H160.695V231.25H162.141V224.023H164.504ZM182.629 233.828V235.82H175.715V241.797H173.254V235.82H166.418V233.828H182.629ZM181.184 224.961V226.914H176.008C176.252 228.652 178.215 230.4 181.867 230.84L180.969 232.793C177.844 232.373 175.607 231.035 174.543 229.199C173.449 231.035 171.232 232.373 168.137 232.793L167.219 230.84C170.812 230.4 172.795 228.652 173.078 226.914H167.883V224.961H181.184ZM189.406 228.496C189.406 231.367 190.207 234.336 192.629 235.898L191.281 237.832C189.748 236.904 188.771 235.381 188.215 233.555C187.57 235.566 186.506 237.246 184.895 238.223L183.371 236.387C186.008 234.746 186.984 231.621 186.984 228.613V225.547H189.406V228.496ZM199.113 224.023V241.797H196.73V224.023H199.113ZM195.383 224.277V240.977H193.059V232.051H190.754V230.02H193.059V224.277H195.383ZM217.258 237.676V239.727H200.988V237.676H204.621V233.32C203.244 232.5 202.414 231.24 202.414 229.668C202.414 226.797 205.227 224.883 209.094 224.883C212.941 224.883 215.773 226.797 215.793 229.668C215.783 231.201 214.973 232.451 213.645 233.281V237.676H217.258ZM209.094 226.855C206.555 226.855 204.875 227.871 204.875 229.668C204.875 231.406 206.555 232.48 209.094 232.48C211.613 232.48 213.312 231.406 213.332 229.668C213.312 227.871 211.613 226.855 209.094 226.855ZM207.082 237.676H211.125V234.219C210.49 234.346 209.807 234.414 209.094 234.414C208.381 234.414 207.707 234.355 207.082 234.219V237.676ZM220.578 240.176C219.66 240.176 218.918 239.434 218.938 238.535C218.918 237.637 219.66 236.914 220.578 236.914C221.438 236.914 222.199 237.637 222.199 238.535C222.199 239.434 221.438 240.176 220.578 240.176Z" fill="#495057"/>
<path d="M35.1094 266.328V280.359H33.625V266.328H35.1094ZM27.625 267.375C29.7031 267.375 31.2344 269.281 31.2344 272.281C31.2344 275.297 29.7031 277.203 27.625 277.203C25.5156 277.203 24 275.297 24 272.281C24 269.281 25.5156 267.375 27.625 267.375ZM27.625 268.703C26.3281 268.703 25.4375 270.078 25.4375 272.281C25.4375 274.5 26.3281 275.875 27.625 275.875C28.9062 275.875 29.7969 274.5 29.7969 272.281C29.7969 270.078 28.9062 268.703 27.625 268.703ZM43.25 267.906V271.547H45.125V266.594H46.5469V279.641H45.125V272.766H43.25V276.641H37.8125V267.906H43.25ZM39.2188 269.078V275.453H41.8594V269.078H39.2188ZM49.3906 266.328V280.328H47.9688V266.328H49.3906ZM55.1406 266.797C57.25 266.812 58.7969 268.109 58.8125 269.938C58.7969 271.781 57.25 273.062 55.1406 273.062C53.0156 273.062 51.4531 271.781 51.4531 269.938C51.4531 268.109 53.0156 266.812 55.1406 266.797ZM55.1406 268.047C53.8438 268.031 52.8906 268.797 52.9062 269.938C52.8906 271.094 53.8438 271.859 55.1406 271.859C56.4219 271.859 57.375 271.094 57.375 269.938C57.375 268.797 56.4219 268.031 55.1406 268.047ZM62.7812 266.328V273.453H61.2969V266.328H62.7812ZM62.7812 274.094V277.625H55.0625V278.969H63.25V280.156H53.625V276.516H61.3125V275.281H53.5781V274.094H62.7812Z" fill="#343A40"/>
<path d="M72.9375 274.047H71.75L71.8438 271.719L69.875 272.969L69.2812 271.938L71.3594 270.875L69.2812 269.797L69.875 268.766L71.8438 270.016L71.75 267.688H72.9375L72.8281 270.016L74.7969 268.766L75.4062 269.797L73.3281 270.875L75.4062 271.938L74.7969 272.969L72.8281 271.719L72.9375 274.047Z" fill="#F05A5A"/>
<rect x="23.5" y="292.5" width="346" height="39" rx="4.5" fill="white"/>
<rect x="23.5" y="292.5" width="346" height="39" rx="4.5" stroke="#DEE2E6"/>
<path d="M46.043 305.912V318.189H44.7441V305.912H46.043ZM39.4941 306.828C41.3125 306.828 42.6523 308.496 42.6523 311.121C42.6523 313.76 41.3125 315.428 39.4941 315.428C37.6484 315.428 36.3223 313.76 36.3223 311.121C36.3223 308.496 37.6484 306.828 39.4941 306.828ZM39.4941 307.99C38.3594 307.99 37.5801 309.193 37.5801 311.121C37.5801 313.062 38.3594 314.266 39.4941 314.266C40.6152 314.266 41.3945 313.062 41.3945 311.121C41.3945 309.193 40.6152 307.99 39.4941 307.99ZM53.166 307.293V310.479H54.8066V306.145H56.0508V317.561H54.8066V311.545H53.166V314.936H48.4082V307.293H53.166ZM49.6387 308.318V313.896H51.9492V308.318H49.6387ZM58.5391 305.912V318.162H57.2949V305.912H58.5391ZM63.5703 306.322C65.416 306.336 66.7695 307.471 66.7832 309.07C66.7695 310.684 65.416 311.805 63.5703 311.805C61.7109 311.805 60.3438 310.684 60.3438 309.07C60.3438 307.471 61.7109 306.336 63.5703 306.322ZM63.5703 307.416C62.4355 307.402 61.6016 308.072 61.6152 309.07C61.6016 310.082 62.4355 310.752 63.5703 310.752C64.6914 310.752 65.5254 310.082 65.5254 309.07C65.5254 308.072 64.6914 307.402 63.5703 307.416ZM70.2559 305.912V312.146H68.957V305.912H70.2559ZM70.2559 312.707V315.797H63.502V316.973H70.666V318.012H62.2441V314.826H68.9707V313.746H62.2031V312.707H70.2559ZM77.7754 306.117C80.5371 306.117 82.1504 306.855 82.1504 308.223C82.1504 309.59 80.5371 310.342 77.7754 310.342C75.0137 310.342 73.4004 309.59 73.4004 308.223C73.4004 306.855 75.0137 306.117 77.7754 306.117ZM77.7754 307.074C75.8203 307.074 74.7402 307.498 74.7539 308.223C74.7402 308.975 75.8203 309.371 77.7754 309.371C79.7305 309.371 80.8105 308.975 80.8105 308.223C80.8105 307.498 79.7305 307.074 77.7754 307.074ZM83.3672 311.094V312.133H72.1973V311.094H83.3672ZM81.959 313.076V315.947H74.8223V317.041H82.3008V318.039H73.5508V315.004H80.6738V314.047H73.5371V313.076H81.959ZM97.873 305.912V312.488H96.5742V305.912H97.873ZM91.1328 313.076V314.457H96.5879V313.076H97.873V318.012H89.8613V313.076H91.1328ZM91.1328 316.945H96.5879V315.482H91.1328V316.945ZM91.2285 306.473C93.1016 306.473 94.4824 307.635 94.4824 309.316C94.4824 310.998 93.1016 312.16 91.2285 312.146C89.3555 312.16 87.9609 310.998 87.9609 309.316C87.9609 307.635 89.3555 306.473 91.2285 306.473ZM91.2285 307.566C90.0664 307.553 89.2324 308.277 89.2324 309.316C89.2324 310.369 90.0664 311.08 91.2285 311.08C92.377 311.08 93.2109 310.369 93.2109 309.316C93.2109 308.277 92.377 307.553 91.2285 307.566ZM105.652 306.65V310.219H101.605V311.914C103.738 311.921 104.9 311.873 106.281 311.613L106.404 312.666C104.914 312.926 103.656 312.967 101.209 312.967H100.32V309.234H104.354V307.689H100.307V306.65H105.652ZM110.027 305.926V313.459H108.729V311.299H106.432V310.26H108.729V308.742H106.432V307.703H108.729V305.926H110.027ZM110.027 314.074V318.176H108.729V315.127H101.715V314.074H110.027ZM117.971 307.936V308.988H111.887V307.936H114.293V306.268H115.578V307.936H117.971ZM114.936 309.727C116.494 309.727 117.588 310.889 117.602 312.543C117.588 314.211 116.494 315.387 114.936 315.387C113.404 315.387 112.27 314.211 112.283 312.543C112.27 310.889 113.404 309.727 114.936 309.727ZM114.936 310.807C114.047 310.807 113.432 311.531 113.432 312.543C113.432 313.582 114.047 314.279 114.936 314.279C115.811 314.279 116.453 313.582 116.453 312.543C116.453 311.531 115.811 310.807 114.936 310.807ZM122.4 305.912V318.162H121.17V312.078H119.762V317.588H118.531V306.186H119.762V311.012H121.17V305.912H122.4ZM135.184 312.816V313.869H130.207V318.148H128.936V313.869H124.014V312.816H135.184ZM134.131 306.637V307.676H130.344C130.364 309.193 132.251 310.547 134.568 310.861L134.09 311.887C132.08 311.572 130.344 310.581 129.605 309.18C128.847 310.581 127.117 311.572 125.135 311.887L124.643 310.861C126.933 310.547 128.819 309.193 128.867 307.676H125.053V306.637H134.131ZM139.846 309.262C139.846 311.217 140.666 313.309 142.307 314.307L141.582 315.305C140.434 314.614 139.654 313.391 139.244 311.969C138.786 313.527 137.945 314.854 136.756 315.578L135.949 314.607C137.686 313.568 138.588 311.408 138.588 309.316V307.033H139.846V309.262ZM146.654 305.912V318.162H145.41V305.912H146.654ZM144.111 306.145V317.561H142.881V311.299H140.98V310.219H142.881V306.145H144.111ZM159.424 315.551V316.631H148.213V315.551H150.893V312.352C149.888 311.798 149.279 310.916 149.279 309.822C149.279 307.895 151.166 306.623 153.791 306.623C156.43 306.623 158.316 307.895 158.316 309.822C158.316 310.902 157.729 311.771 156.744 312.324V315.551H159.424ZM153.791 307.662C151.863 307.662 150.537 308.496 150.537 309.822C150.537 311.135 151.863 311.996 153.791 311.996C155.705 311.996 157.059 311.135 157.059 309.822C157.059 308.496 155.705 307.662 153.791 307.662ZM152.178 315.551H155.432V312.816C154.933 312.946 154.379 313.008 153.791 313.008C153.217 313.008 152.67 312.946 152.178 312.83V315.551ZM161.707 317.096C161.174 317.096 160.723 316.658 160.736 316.125C160.723 315.592 161.174 315.154 161.707 315.154C162.227 315.154 162.678 315.592 162.678 316.125C162.678 316.658 162.227 317.096 161.707 317.096Z" fill="#CED4DA"/>
<path d="M35.1094 344.328V358.359H33.625V344.328H35.1094ZM25.7812 345.5V349.094H29.5469V345.5H31.0156V355H24.2969V345.5H25.7812ZM25.7812 353.781H29.5469V350.266H25.7812V353.781ZM44.7344 345.078V350.844H38.0781V345.078H44.7344ZM39.5312 346.281V349.688H43.2656V346.281H39.5312ZM48.9375 344.328V351.5H47.4688V344.328H48.9375ZM48.9375 352.172V355.656H41.2344V357H49.3906V358.188H39.7812V354.578H47.4844V353.328H39.75V352.172H48.9375ZM62.8438 344.344V354.688H61.3594V349.406H58.2969V352.359H51.8438V345.266H53.3281V347.641H56.8281V345.266H58.2969V348.203H61.3594V344.344H62.8438ZM63.1562 356.828V358.031H53.7031V353.672H55.2031V356.828H63.1562ZM53.3281 351.156H56.8281V348.781H53.3281V351.156ZM77.125 346.297V347.5H65.6094V346.297H70.6406V344.531H72.1094V346.297H77.125ZM77.8125 355.547V356.75H65V355.547H70.6406V353.688C68.1875 353.539 66.7031 352.57 66.7031 351.016C66.7031 349.328 68.4844 348.344 71.375 348.344C74.2344 348.344 76.0312 349.328 76.0312 351.016C76.0312 352.57 74.5391 353.539 72.1094 353.688V355.547H77.8125ZM71.375 349.516C69.375 349.516 68.2031 350.047 68.2188 351.016C68.2031 351.984 69.375 352.516 71.375 352.531C73.3438 352.516 74.5156 351.984 74.5156 351.016C74.5156 350.047 73.3438 349.516 71.375 349.516Z" fill="#343A40"/>
<path d="M86.7656 352.047H85.5781L85.6719 349.719L83.7031 350.969L83.1094 349.938L85.1875 348.875L83.1094 347.797L83.7031 346.766L85.6719 348.016L85.5781 345.688H86.7656L86.6562 348.016L88.625 346.766L89.2344 347.797L87.1562 348.875L89.2344 349.938L88.625 350.969L86.6562 349.719L86.7656 352.047Z" fill="#F05A5A"/>
<rect x="23.5" y="370.5" width="346" height="39" rx="4.5" fill="white"/>
<rect x="23.5" y="370.5" width="346" height="39" rx="4.5" stroke="#DEE2E6"/>
<path d="M45.9932 383.912V396.189H44.6943V383.912H45.9932ZM37.8311 384.938V388.082H41.126V384.938H42.4111V393.25H36.5322V384.938H37.8311ZM37.8311 392.184H41.126V389.107H37.8311V392.184ZM54.415 384.568V389.613H48.5908V384.568H54.415ZM49.8623 385.621V388.602H53.1299V385.621H49.8623ZM58.0928 383.912V390.188H56.8076V383.912H58.0928ZM58.0928 390.775V393.824H51.3525V395H58.4893V396.039H50.0811V392.881H56.8213V391.787H50.0537V390.775H58.0928ZM70.2607 383.926V392.977H68.9619V388.355H66.2822V390.939H60.6357V384.732H61.9346V386.811H64.9971V384.732H66.2822V387.303H68.9619V383.926H70.2607ZM70.5342 394.85V395.902H62.2627V392.088H63.5752V394.85H70.5342ZM61.9346 389.887H64.9971V387.809H61.9346V389.887ZM82.7568 385.635V386.688H72.6807V385.635H77.083V384.09H78.3682V385.635H82.7568ZM83.3584 393.729V394.781H72.1475V393.729H77.083V392.102C74.9365 391.972 73.6377 391.124 73.6377 389.764C73.6377 388.287 75.1963 387.426 77.7256 387.426C80.2275 387.426 81.7998 388.287 81.7998 389.764C81.7998 391.124 80.4941 391.972 78.3682 392.102V393.729H83.3584ZM77.7256 388.451C75.9756 388.451 74.9502 388.916 74.9639 389.764C74.9502 390.611 75.9756 391.076 77.7256 391.09C79.4482 391.076 80.4736 390.611 80.4736 389.764C80.4736 388.916 79.4482 388.451 77.7256 388.451ZM95.4443 389.531V390.529H84.2334V389.531H95.4443ZM94.0635 391.391V394.084H86.8721V395.096H94.4463V396.012H85.5732V393.223H92.7783V392.32H85.5596V391.391H94.0635ZM94.0361 384.227V386.879H86.9541V387.809H94.2412V388.725H85.6689V386.018H92.7373V385.143H85.6416V384.227H94.0361ZM109.923 383.912V390.488H108.624V383.912H109.923ZM103.183 391.076V392.457H108.638V391.076H109.923V396.012H101.911V391.076H103.183ZM103.183 394.945H108.638V393.482H103.183V394.945ZM103.278 384.473C105.151 384.473 106.532 385.635 106.532 387.316C106.532 388.998 105.151 390.16 103.278 390.146C101.405 390.16 100.011 388.998 100.011 387.316C100.011 385.635 101.405 384.473 103.278 384.473ZM103.278 385.566C102.116 385.553 101.282 386.277 101.282 387.316C101.282 388.369 102.116 389.08 103.278 389.08C104.427 389.08 105.261 388.369 105.261 387.316C105.261 386.277 104.427 385.553 103.278 385.566ZM117.702 384.65V388.219H113.655V389.914C115.788 389.921 116.95 389.873 118.331 389.613L118.454 390.666C116.964 390.926 115.706 390.967 113.259 390.967H112.37V387.234H116.403V385.689H112.356V384.65H117.702ZM122.077 383.926V391.459H120.778V389.299H118.481V388.26H120.778V386.742H118.481V385.703H120.778V383.926H122.077ZM122.077 392.074V396.176H120.778V393.127H113.765V392.074H122.077ZM130.021 385.936V386.988H123.937V385.936H126.343V384.268H127.628V385.936H130.021ZM126.985 387.727C128.544 387.727 129.638 388.889 129.651 390.543C129.638 392.211 128.544 393.387 126.985 393.387C125.454 393.387 124.319 392.211 124.333 390.543C124.319 388.889 125.454 387.727 126.985 387.727ZM126.985 388.807C126.097 388.807 125.481 389.531 125.481 390.543C125.481 391.582 126.097 392.279 126.985 392.279C127.86 392.279 128.503 391.582 128.503 390.543C128.503 389.531 127.86 388.807 126.985 388.807ZM134.45 383.912V396.162H133.22V390.078H131.812V395.588H130.581V384.186H131.812V389.012H133.22V383.912H134.45ZM147.233 390.816V391.869H142.257V396.148H140.985V391.869H136.063V390.816H147.233ZM146.181 384.637V385.676H142.394C142.414 387.193 144.301 388.547 146.618 388.861L146.14 389.887C144.13 389.572 142.394 388.581 141.655 387.18C140.896 388.581 139.167 389.572 137.185 389.887L136.692 388.861C138.982 388.547 140.869 387.193 140.917 385.676H137.103V384.637H146.181ZM151.896 387.262C151.896 389.217 152.716 391.309 154.356 392.307L153.632 393.305C152.483 392.614 151.704 391.391 151.294 389.969C150.836 391.527 149.995 392.854 148.806 393.578L147.999 392.607C149.735 391.568 150.638 389.408 150.638 387.316V385.033H151.896V387.262ZM158.704 383.912V396.162H157.46V383.912H158.704ZM156.161 384.145V395.561H154.931V389.299H153.03V388.219H154.931V384.145H156.161ZM171.474 393.551V394.631H160.263V393.551H162.942V390.352C161.938 389.798 161.329 388.916 161.329 387.822C161.329 385.895 163.216 384.623 165.841 384.623C168.479 384.623 170.366 385.895 170.366 387.822C170.366 388.902 169.778 389.771 168.794 390.324V393.551H171.474ZM165.841 385.662C163.913 385.662 162.587 386.496 162.587 387.822C162.587 389.135 163.913 389.996 165.841 389.996C167.755 389.996 169.108 389.135 169.108 387.822C169.108 386.496 167.755 385.662 165.841 385.662ZM164.228 393.551H167.481V390.816C166.982 390.946 166.429 391.008 165.841 391.008C165.267 391.008 164.72 390.946 164.228 390.83V393.551ZM173.757 395.096C173.224 395.096 172.772 394.658 172.786 394.125C172.772 393.592 173.224 393.154 173.757 393.154C174.276 393.154 174.728 393.592 174.728 394.125C174.728 394.658 174.276 395.096 173.757 395.096Z" fill="#CED4DA"/>
<path d="M35.1094 422.328V436.359H33.625V422.328H35.1094ZM25.7812 423.5V427.094H29.5469V423.5H31.0156V433H24.2969V423.5H25.7812ZM25.7812 431.781H29.5469V428.266H25.7812V431.781ZM44.7344 423.078V428.844H38.0781V423.078H44.7344ZM39.5312 424.281V427.688H43.2656V424.281H39.5312ZM48.9375 422.328V429.5H47.4688V422.328H48.9375ZM48.9375 430.172V433.656H41.2344V435H49.3906V436.188H39.7812V432.578H47.4844V431.328H39.75V430.172H48.9375ZM62.8438 422.344V432.688H61.3594V427.406H58.2969V430.359H51.8438V423.266H53.3281V425.641H56.8281V423.266H58.2969V426.203H61.3594V422.344H62.8438ZM63.1562 434.828V436.031H53.7031V431.672H55.2031V434.828H63.1562ZM53.3281 429.156H56.8281V426.781H53.3281V429.156ZM77.125 424.297V425.5H65.6094V424.297H70.6406V422.531H72.1094V424.297H77.125ZM77.8125 433.547V434.75H65V433.547H70.6406V431.688C68.1875 431.539 66.7031 430.57 66.7031 429.016C66.7031 427.328 68.4844 426.344 71.375 426.344C74.2344 426.344 76.0312 427.328 76.0312 429.016C76.0312 430.57 74.5391 431.539 72.1094 431.688V433.547H77.8125ZM71.375 427.516C69.375 427.516 68.2031 428.047 68.2188 429.016C68.2031 429.984 69.375 430.516 71.375 430.531C73.3438 430.516 74.5156 429.984 74.5156 429.016C74.5156 428.047 73.3438 427.516 71.375 427.516ZM93.75 422.344V426.5H95.75V427.719H93.75V431.766H92.2656V422.344H93.75ZM82.6406 430.203C83.7266 430.203 84.9844 430.203 86.2969 430.156V429.219C84.7031 429.055 83.6875 428.305 83.7031 427.172C83.6875 425.891 85.0156 425.094 87.0312 425.109C89.0312 425.094 90.3594 425.891 90.3594 427.172C90.3594 428.297 89.3594 429.047 87.7812 429.219V430.109C89.0312 430.047 90.2969 429.945 91.4688 429.781L91.5938 430.844C88.5781 431.375 85.2656 431.391 82.7969 431.391L82.6406 430.203ZM93.75 432.422V436.328H92.2656V433.578H84.3906V432.422H93.75ZM91.0781 423.531V424.641H83V423.531H86.2969V422.219H87.7812V423.531H91.0781ZM87.0312 426.125C85.8281 426.109 85.1094 426.5 85.1094 427.172C85.1094 427.828 85.8281 428.25 87.0312 428.25C88.2188 428.25 88.9375 427.828 88.9375 427.172C88.9375 426.5 88.2188 426.109 87.0312 426.125ZM108.172 422.344V432.516H106.688V422.344H108.172ZM108.594 434.828V436.031H99.0156V431.484H100.516V434.828H108.594ZM100.578 423.281C102.688 423.281 104.297 424.719 104.297 426.75C104.297 428.812 102.688 430.234 100.578 430.234C98.4688 430.234 96.8438 428.812 96.8438 426.75C96.8438 424.719 98.4688 423.281 100.578 423.281ZM100.578 424.578C99.2656 424.578 98.2969 425.469 98.2969 426.75C98.2969 428.062 99.2656 428.938 100.578 428.938C101.859 428.938 102.844 428.062 102.844 426.75C102.844 425.469 101.859 424.578 100.578 424.578Z" fill="#343A40"/>
<path d="M118.328 430.047H117.141L117.234 427.719L115.266 428.969L114.672 427.938L116.75 426.875L114.672 425.797L115.266 424.766L117.234 426.016L117.141 423.688H118.328L118.219 426.016L120.188 424.766L120.797 425.797L118.719 426.875L120.797 427.938L120.188 428.969L118.219 427.719L118.328 430.047Z" fill="#F05A5A"/>
<rect x="23.5" y="448.5" width="346" height="39" rx="4.5" fill="white"/>
<rect x="23.5" y="448.5" width="346" height="39" rx="4.5" stroke="#DEE2E6"/>
<path d="M46.6846 461.912V474.189H45.3857V461.912H46.6846ZM38.5225 462.938V466.082H41.8174V462.938H43.1025V471.25H37.2236V462.938H38.5225ZM38.5225 470.184H41.8174V467.107H38.5225V470.184ZM55.1064 462.568V467.613H49.2822V462.568H55.1064ZM50.5537 463.621V466.602H53.8213V463.621H50.5537ZM58.7842 461.912V468.188H57.499V461.912H58.7842ZM58.7842 468.775V471.824H52.0439V473H59.1807V474.039H50.7725V470.881H57.5127V469.787H50.7451V468.775H58.7842ZM70.9521 461.926V470.977H69.6533V466.355H66.9736V468.939H61.3271V462.732H62.626V464.811H65.6885V462.732H66.9736V465.303H69.6533V461.926H70.9521ZM71.2256 472.85V473.902H62.9541V470.088H64.2666V472.85H71.2256ZM62.626 467.887H65.6885V465.809H62.626V467.887ZM83.4482 463.635V464.688H73.3721V463.635H77.7744V462.09H79.0596V463.635H83.4482ZM84.0498 471.729V472.781H72.8389V471.729H77.7744V470.102C75.6279 469.972 74.3291 469.124 74.3291 467.764C74.3291 466.287 75.8877 465.426 78.417 465.426C80.9189 465.426 82.4912 466.287 82.4912 467.764C82.4912 469.124 81.1855 469.972 79.0596 470.102V471.729H84.0498ZM78.417 466.451C76.667 466.451 75.6416 466.916 75.6553 467.764C75.6416 468.611 76.667 469.076 78.417 469.09C80.1396 469.076 81.165 468.611 81.165 467.764C81.165 466.916 80.1396 466.451 78.417 466.451ZM96.1357 467.531V468.529H84.9248V467.531H96.1357ZM94.7549 469.391V472.084H87.5635V473.096H95.1377V474.012H86.2646V471.223H93.4697V470.32H86.251V469.391H94.7549ZM94.7275 462.227V464.879H87.6455V465.809H94.9326V466.725H86.3604V464.018H93.4287V463.143H86.333V462.227H94.7275ZM109.999 461.912V466.656H111.968V467.723H109.999V474.189H108.7V461.912H109.999ZM106.704 463.088V464.141H102.274V470.061C104.332 470.054 105.877 469.965 107.62 469.65L107.784 470.744C105.87 471.086 104.243 471.154 101.96 471.141H100.976V463.088H106.704ZM117.054 465.029C117.04 467.271 118.394 469.514 120.294 470.361L119.515 471.387C118.106 470.717 116.992 469.343 116.425 467.668C115.851 469.459 114.723 470.942 113.253 471.66L112.46 470.566C114.388 469.705 115.741 467.367 115.741 465.029V462.938H117.054V465.029ZM122.7 461.912V474.189H121.401V461.912H122.7ZM138.231 461.912V468.488H136.933V461.912H138.231ZM131.491 469.076V470.457H136.946V469.076H138.231V474.012H130.22V469.076H131.491ZM131.491 472.945H136.946V471.482H131.491V472.945ZM131.587 462.473C133.46 462.473 134.841 463.635 134.841 465.316C134.841 466.998 133.46 468.16 131.587 468.146C129.714 468.16 128.319 466.998 128.319 465.316C128.319 463.635 129.714 462.473 131.587 462.473ZM131.587 463.566C130.425 463.553 129.591 464.277 129.591 465.316C129.591 466.369 130.425 467.08 131.587 467.08C132.735 467.08 133.569 466.369 133.569 465.316C133.569 464.277 132.735 463.553 131.587 463.566ZM146.011 462.65V466.219H141.964V467.914C144.097 467.921 145.259 467.873 146.64 467.613L146.763 468.666C145.272 468.926 144.015 468.967 141.567 468.967H140.679V465.234H144.712V463.689H140.665V462.65H146.011ZM150.386 461.926V469.459H149.087V467.299H146.79V466.26H149.087V464.742H146.79V463.703H149.087V461.926H150.386ZM150.386 470.074V474.176H149.087V471.127H142.073V470.074H150.386ZM158.329 463.936V464.988H152.245V463.936H154.651V462.268H155.937V463.936H158.329ZM155.294 465.727C156.853 465.727 157.946 466.889 157.96 468.543C157.946 470.211 156.853 471.387 155.294 471.387C153.763 471.387 152.628 470.211 152.642 468.543C152.628 466.889 153.763 465.727 155.294 465.727ZM155.294 466.807C154.405 466.807 153.79 467.531 153.79 468.543C153.79 469.582 154.405 470.279 155.294 470.279C156.169 470.279 156.812 469.582 156.812 468.543C156.812 467.531 156.169 466.807 155.294 466.807ZM162.759 461.912V474.162H161.528V468.078H160.12V473.588H158.89V462.186H160.12V467.012H161.528V461.912H162.759ZM175.542 468.816V469.869H170.565V474.148H169.294V469.869H164.372V468.816H175.542ZM174.489 462.637V463.676H170.702C170.723 465.193 172.609 466.547 174.927 466.861L174.448 467.887C172.438 467.572 170.702 466.581 169.964 465.18C169.205 466.581 167.476 467.572 165.493 467.887L165.001 466.861C167.291 466.547 169.178 465.193 169.226 463.676H165.411V462.637H174.489ZM180.204 465.262C180.204 467.217 181.024 469.309 182.665 470.307L181.94 471.305C180.792 470.614 180.013 469.391 179.603 467.969C179.145 469.527 178.304 470.854 177.114 471.578L176.308 470.607C178.044 469.568 178.946 467.408 178.946 465.316V463.033H180.204V465.262ZM187.013 461.912V474.162H185.769V461.912H187.013ZM184.47 462.145V473.561H183.239V467.299H181.339V466.219H183.239V462.145H184.47ZM199.782 471.551V472.631H188.571V471.551H191.251V468.352C190.246 467.798 189.638 466.916 189.638 465.822C189.638 463.895 191.524 462.623 194.149 462.623C196.788 462.623 198.675 463.895 198.675 465.822C198.675 466.902 198.087 467.771 197.103 468.324V471.551H199.782ZM194.149 463.662C192.222 463.662 190.896 464.496 190.896 465.822C190.896 467.135 192.222 467.996 194.149 467.996C196.063 467.996 197.417 467.135 197.417 465.822C197.417 464.496 196.063 463.662 194.149 463.662ZM192.536 471.551H195.79V468.816C195.291 468.946 194.737 469.008 194.149 469.008C193.575 469.008 193.028 468.946 192.536 468.83V471.551ZM202.065 473.096C201.532 473.096 201.081 472.658 201.095 472.125C201.081 471.592 201.532 471.154 202.065 471.154C202.585 471.154 203.036 471.592 203.036 472.125C203.036 472.658 202.585 473.096 202.065 473.096Z" fill="#CED4DA"/>
<rect x="24" y="505" width="345" height="42" rx="8" fill="#4970FB"/>
<path d="M176.016 519.781V521.359H171.312V522.25H175.719V523.75H171.312V524.734C173.695 524.727 175.148 524.664 176.875 524.422L177.047 525.953C175.109 526.25 173.422 526.297 170.484 526.297H169.297V519.781H176.016ZM180.047 519.219V522.016H181.969V523.625H180.047V526.531H178.047V519.219H180.047ZM180.047 527.109V530.906H172.594V531.812H180.453V533.344H170.641V529.469H178.062V528.656H170.609V527.109H180.047ZM191.109 525.766V527.328H188.297V529.109C189.461 529.047 190.641 528.938 191.75 528.781L191.906 530.219C188.75 530.844 185.375 530.844 182.891 530.875L182.656 529.25C183.727 529.25 184.984 529.242 186.312 529.203V527.328H183.656V520.375H191.062V521.969H185.672V523.094H190.781V524.609H185.672V525.766H191.109ZM194.547 519.219V533.469H192.562V519.219H194.547ZM207.641 519.219V524.781H209.734V526.422H207.641V533.438H205.672V519.219H207.641ZM204.703 521.344V522.938H196.344V521.344H199.562V519.438H201.562V521.344H204.703ZM200.562 523.734C202.641 523.734 204.188 525.141 204.188 527.125C204.188 529.109 202.641 530.516 200.562 530.516C198.469 530.516 196.922 529.109 196.922 527.125C196.922 525.141 198.469 523.734 200.562 523.734ZM200.562 525.344C199.562 525.359 198.828 526.031 198.828 527.125C198.828 528.234 199.562 528.891 200.562 528.875C201.562 528.891 202.281 528.234 202.281 527.125C202.281 526.031 201.562 525.359 200.562 525.344ZM222.203 519.219V533.438H220.188V519.219H222.203ZM217.938 520.703C217.938 525.016 216.422 528.594 211.344 531L210.297 529.406C213.969 527.672 215.586 525.422 215.906 522.266H211.062V520.703H217.938Z" fill="white"/>
<rect x="129" y="839" width="135" height="5" rx="2.5" fill="black"/>
</g>
<defs>
<clipPath id="clip0_4690_762">
<rect width="393" height="852" rx="20" fill="white"/>
</clipPath>
</defs>
</svg>
